<svg width="95" height="32" viewBox="0 0 95 32" fill="none" xmlns="http://www.w3.org/2000/svg">
<path d="M0 0H32V32H0V0ZM28.672 28.672V3.328H3.328V28.672H28.672ZM6.208 8.256V17.92C6.208 22.336 8.64 24.96 12.736 24.96C16.96 24.96 19.392 22.336 19.392 17.92V8.256H16.064V17.92C16.064 20.416 14.976 21.824 12.8 21.824C10.496 21.824 9.472 20.352 9.472 17.92V8.256H6.208ZM23.68 10.24C24.832 10.24 25.728 9.408 25.728 8.256C25.728 7.04 24.896 6.208 23.68 6.208C22.528 6.208 21.632 7.04 21.632 8.256C21.632 9.408 22.528 10.24 23.68 10.24ZM22.016 11.776V24.768H25.344V11.776H22.016ZM41.856 19.456C45.44 19.456 47.808 17.344 47.808 13.824C47.808 10.432 45.504 8.256 41.856 8.256H35.584V24.832H38.912V19.52H41.856V19.456ZM41.472 16.832H38.848V10.944H41.472C43.392 10.944 44.416 12.032 44.416 13.824C44.416 15.744 43.392 16.832 41.472 16.832ZM48.896 18.304C48.896 22.208 51.392 24.96 54.912 24.96C57.024 24.96 58.368 24.192 59.136 22.976V24.832H62.464V11.776H59.136V13.824C58.304 12.48 56.96 11.648 54.912 11.648C51.328 11.648 48.896 14.464 48.896 18.304ZM59.136 18.304C59.136 20.544 57.728 22.016 55.68 22.016C53.44 22.016 52.288 20.416 52.288 18.304C52.288 16 53.568 14.528 55.68 14.528C57.792 14.528 59.136 16.064 59.136 18.304ZM70.784 21.952C69.504 21.952 69.184 21.376 69.184 20.224V14.592H72.064V11.776H69.184V8.192H65.856V11.776H64.32V14.592H65.856V20.224C65.856 23.296 67.2 24.768 70.4 24.768H72.128V21.952H70.784ZM77.248 13.632V7.488H73.92V24.832H77.248V17.92C77.248 15.68 78.4 14.336 80.384 14.336C82.304 14.336 83.328 15.616 83.328 17.6V24.768H86.656V17.28C86.656 13.888 84.224 11.648 81.152 11.648C79.232 11.648 78.016 12.352 77.248 13.632ZM86.4 7.424V7.936H87.488V11.264H88.128V7.936H89.152V7.424H86.4ZM93.312 7.424L91.968 10.496L90.688 7.424H89.92V11.264H90.496V8.32L91.776 11.264H92.224L93.44 8.32V11.264H94.016V7.424H93.312Z" fill="#FA4616"/>
</svg>
