<svg width="924" height="142" viewBox="0 0 924 142" fill="none" xmlns="http://www.w3.org/2000/svg">
<path d="M397.002 131.003L356.588 18.4617C356.071 16.9057 355.302 14.8514 355.302 13.0493C355.302 8.17194 359.423 3.5407 365.327 3.5407C370.482 3.5407 373.84 6.88659 375.377 11.7639L408.867 108.738L442.596 11.4933C444.133 6.8804 447.227 3.5345 452.35 3.5345H453.396C458.815 3.5345 462.16 6.8804 463.698 11.4933L497.15 108.738L531.169 11.2534C532.454 7.11411 535.265 3.5345 540.69 3.5345C546.348 3.5345 550.475 7.88907 550.475 12.791C550.475 14.5869 549.694 16.6351 549.19 18.2035L508.517 131.003C506.438 136.895 502.335 139.989 497.692 139.989H496.923C491.769 139.989 487.9 136.895 486.086 131.003L452.892 35.3693L419.409 131.003C417.606 136.895 413.732 139.989 408.596 139.989H408.055C403.177 139.989 399.075 136.895 397.002 131.003V131.003ZM691.604 13.3507C691.604 7.91984 695.983 3.28242 701.389 3.28242C707.091 3.28242 711.458 7.66767 711.458 13.3507V36.1875C721.249 14.0089 742.967 3.5407 757.359 3.5407C763.319 3.5407 767.187 7.91985 767.187 13.5906C767.187 19.0153 763.595 22.8655 758.392 23.6405C732.591 26.7342 711.464 46.0897 711.464 84.5302V129.755C711.464 135.173 707.343 139.805 701.672 139.805C695.996 139.805 691.61 135.401 691.61 129.755L691.604 13.3507ZM830.912 141.059C795.012 141.059 765.699 113.216 765.699 72.383V71.854C765.699 33.8256 792.244 3.19008 828.385 3.19008C867.028 3.19008 889.034 35.0743 889.034 70.0643C889.034 75.4398 884.698 79.2838 879.926 79.2838H785.442C788.197 107.853 808.149 123.93 831.429 123.93C847.611 123.93 859.451 117.546 869.07 108.609C870.589 107.349 872.354 106.328 874.642 106.328C879.427 106.328 883.234 110.159 883.234 114.772C883.234 117.06 882.226 119.366 880.178 121.132C867.809 133.119 853.134 141.059 830.912 141.059V141.059ZM869.574 64.7256C867.545 40.708 853.891 19.7964 827.856 19.7964C805.111 19.7964 787.927 38.9305 785.43 64.7256H869.574ZM550.826 99.7281V99.2113C550.826 71.1898 573.976 56.2563 607.65 56.2563C624.631 56.2563 636.711 58.5689 648.563 61.9333V57.2836C648.563 33.389 633.863 21.0264 608.948 21.0264C595.57 21.0264 587.784 22.7302 577.992 27.0909C576.725 27.6076 575.428 27.8719 574.425 27.8719C569.794 27.8719 565.661 24.0033 565.661 19.3843C565.661 15.2819 567.451 12.7417 571.073 11.1364C584.168 5.4534 594.039 3.56528 611.002 3.56528C629.761 3.56528 644.165 8.43639 653.92 18.2157C662.937 27.2138 667.568 40.0685 667.568 57.0499V130.413C667.568 136.053 663.453 140.18 658.022 140.18C652.389 140.18 648.569 136.059 648.569 130.923V118.241C639.294 130.351 623.85 141.133 600.497 141.133C575.797 141.115 550.826 126.987 550.826 99.7281V99.7281ZM648.815 89.4383V76.5776C639.024 73.7546 625.892 70.9191 609.704 70.9191C584.795 70.9191 570.889 81.7318 570.889 98.4303V98.9407C570.889 115.652 586.302 125.425 604.323 125.425C628.74 125.425 648.815 110.504 648.815 89.4383ZM36.7688 11.8869C32.4143 2.34132 21.6511 -1.98242 11.6012 2.48283C1.539 6.95423 -2.16373 18.1112 2.38148 27.6629L44.58 119.385C51.2164 133.759 58.2095 141.293 71.3347 141.293C85.3577 141.293 91.4713 133.088 98.1015 119.385C98.1015 119.385 134.906 39.2443 135.275 38.4078C135.65 37.559 136.831 34.9697 140.577 34.9943C143.744 35.0128 146.407 37.5405 146.407 40.9355V119.305C146.407 131.384 153.105 141.293 165.997 141.293C178.876 141.293 185.838 131.384 185.838 119.305V55.1739C185.838 42.8053 194.701 34.779 206.78 34.779C218.86 34.779 226.899 43.0944 226.899 55.1739V119.305C226.899 131.384 233.621 141.293 246.488 141.293C259.367 141.293 266.366 131.384 266.366 119.305V55.1739C266.366 42.8053 275.192 34.779 287.278 34.779C299.339 34.779 307.408 43.0944 307.408 55.1739V119.305C307.408 131.384 314.125 141.293 327.004 141.293C339.877 141.293 346.864 131.384 346.864 119.305V46.3172C346.864 19.495 325.294 0.705335 299.339 0.705335C273.415 0.705335 257.177 18.64 257.177 18.64C248.548 7.45232 236.653 0.729923 216.523 0.729923C195.279 0.729923 176.686 18.64 176.686 18.64C168.051 7.45232 153.351 0.729923 141.179 0.729923C122.353 0.729923 107.401 9.00846 98.2798 29.8647L71.3347 93.3807L36.7688 11.8869ZM890.64 19.8332V19.7227C890.64 10.7491 897.922 3.19008 907.074 3.19008C916.355 3.19008 923.539 10.6691 923.539 19.6549V19.7227C923.539 28.727 916.275 36.2859 907.074 36.2859C897.793 36.2859 890.64 28.8314 890.64 19.8332V19.8332ZM920.377 19.7227V19.6795C920.377 12.2989 914.676 6.24692 907.074 6.24692C899.539 6.24692 893.752 12.4036 893.752 19.7227V19.8086C893.752 27.1708 899.472 33.2228 907.074 33.2228C914.583 33.2228 920.377 27.0786 920.377 19.7227" fill="#696566"/>
<path d="M900.782 13.2155C900.782 12.2376 901.563 11.4564 902.553 11.4564H908.039C910.106 11.4564 911.699 12.0408 912.689 13.0864C913.593 13.9659 914.085 15.2391 914.085 16.7152V16.7643C914.085 19.2737 912.818 20.8052 910.905 21.6109L913.329 24.5632C913.667 25.006 913.895 25.3689 913.895 25.9101C913.895 26.8819 913.07 27.5215 912.234 27.5215C911.453 27.5215 910.924 27.1217 910.512 26.6173L907.098 22.2997H904.3V25.7688C904.3 26.7467 903.543 27.5155 902.559 27.5155C901.569 27.5155 900.788 26.7405 900.788 25.7688V13.2155H900.782ZM907.843 19.1939C909.552 19.1939 910.493 18.3019 910.493 16.9427V16.8875C910.493 15.4052 909.485 14.6056 907.781 14.6056H904.281V19.1877H907.843V19.1939Z" fill="#696566"/>
</svg>
