<svg width="250" height="35" viewBox="0 0 250 35" fill="none" xmlns="http://www.w3.org/2000/svg">
<g clip-path="url(#clip0_163_9)">
<path fill-rule="evenodd" clip-rule="evenodd" d="M1.4707 34.095V0.783203H10.2413L22.8413 17.9126C23.0884 18.2832 23.5001 18.9832 24.0354 20.0126C24.6119 21.0832 25.2295 22.3597 25.8884 23.8009C25.6825 22.4009 25.5589 21.2067 25.4766 20.095C25.3942 19.0244 25.3531 18.0773 25.3531 17.2538V0.783203H34.0825V34.095H25.3531L12.7531 16.9244C12.506 16.5538 12.0942 15.8538 11.5178 14.7832C10.9825 13.7538 10.3648 12.5185 9.706 11.0773C9.91188 12.4773 10.0354 13.7126 10.1178 14.7832C10.2001 15.8538 10.2413 16.8009 10.2413 17.6656V34.095H1.4707Z" fill="#BB3B40"/>
<path fill-rule="evenodd" clip-rule="evenodd" d="M37.3354 34.095L48.8237 0.783203H60.2296L71.759 34.095H62.7002L61.0119 28.1244H48.1237L46.3531 34.095H37.3354V34.095ZM50.059 21.6597H59.1178L55.7002 10.6656C55.6178 10.3361 55.4531 9.80085 55.2884 9.05967C55.0825 8.3185 54.8766 7.37144 54.5884 6.17732C54.3825 7.00085 54.1766 7.7832 54.0119 8.52438C53.806 9.26556 53.6002 9.96556 53.4354 10.6656L50.059 21.6597V21.6597Z" fill="#BB3B40"/>
<path fill-rule="evenodd" clip-rule="evenodd" d="M76.4531 23.3471C77.8119 24.8706 79.1296 26.0235 80.4472 26.7647C81.7649 27.5471 83.0825 27.9176 84.359 27.9176C85.5943 27.9176 86.5825 27.5882 87.3649 26.9294C88.1472 26.2706 88.559 25.4471 88.559 24.4588C88.559 23.3471 88.1884 22.4824 87.5296 21.9059C86.8707 21.2882 85.306 20.6706 82.959 20.0529C79.6649 19.1471 77.359 17.9941 76.0002 16.5941C74.6413 15.1941 73.9825 13.2588 73.9825 10.8294C73.9825 7.61765 75.0531 5.02353 77.1943 3.00588C79.3355 0.988235 82.0943 0 85.4707 0C87.3237 0 89.0943 0.247059 90.7413 0.741177C92.3884 1.23529 93.9119 1.97647 95.3943 2.96471L92.5531 9.51176C91.5237 8.64706 90.4531 7.94706 89.3825 7.49412C88.2707 7.08235 87.2002 6.83529 86.1707 6.83529C85.059 6.83529 84.1531 7.12353 83.4943 7.61765C82.7943 8.15294 82.4649 8.81176 82.4649 9.63529C82.4649 10.5 82.7531 11.1588 83.3707 11.6529C83.9472 12.1471 85.1413 12.6412 86.8296 13.0941L87.2413 13.2176C90.9472 14.2059 93.4178 15.3176 94.5708 16.5118C95.3531 17.2941 95.9708 18.2824 96.3413 19.4353C96.7531 20.5882 96.959 21.8647 96.959 23.2647C96.959 26.7647 95.806 29.6059 93.5002 31.7471C91.1531 33.9294 88.0649 35 84.1943 35C81.8884 35 79.7472 34.5882 77.8531 33.8059C75.959 33.0235 74.106 31.7882 72.3354 30.1L76.4531 23.3471V23.3471Z" fill="#BB3B40"/>
<path fill-rule="evenodd" clip-rule="evenodd" d="M103.547 23.3471C104.906 24.8706 106.265 26.0235 107.582 26.7647C108.9 27.5471 110.177 27.9176 111.494 27.9176C112.73 27.9176 113.718 27.5882 114.5 26.9294C115.282 26.2706 115.653 25.4471 115.653 24.4588C115.653 23.3471 115.324 22.4824 114.665 21.9059C113.965 21.2882 112.441 20.6706 110.053 20.0529C106.8 19.1471 104.494 17.9941 103.135 16.5941C101.777 15.1941 101.118 13.2588 101.118 10.8294C101.118 7.61765 102.188 5.02353 104.288 3.00588C106.43 0.988235 109.23 0 112.606 0C114.459 0 116.188 0.247059 117.835 0.741177C119.482 1.23529 121.047 1.97647 122.53 2.96471L119.688 9.51176C118.659 8.64706 117.588 7.94706 116.518 7.49412C115.406 7.08235 114.335 6.83529 113.265 6.83529C112.194 6.83529 111.288 7.12353 110.588 7.61765C109.93 8.15294 109.6 8.81176 109.6 9.63529C109.6 10.5 109.888 11.1588 110.506 11.6529C111.082 12.1471 112.235 12.6412 113.965 13.0941L114.377 13.2176C118.082 14.2059 120.512 15.3176 121.665 16.5118C122.488 17.2941 123.065 18.2824 123.477 19.4353C123.888 20.5882 124.094 21.8647 124.094 23.2647C124.094 26.7647 122.941 29.6059 120.635 31.7471C118.288 33.9294 115.2 35 111.33 35C108.982 35 106.882 34.5882 104.988 33.8059C103.053 33.0235 101.241 31.7882 99.4707 30.1L103.547 23.3471V23.3471Z" fill="#BB3B40"/>
<path fill-rule="evenodd" clip-rule="evenodd" d="M153.371 2.1V12.0235C152.135 10.6235 150.9 9.63529 149.665 8.97647C148.429 8.31765 147.112 7.98824 145.671 7.98824C143.077 7.98824 140.935 8.89412 139.329 10.6647C137.724 12.4765 136.9 14.7824 136.9 17.6647C136.9 20.3 137.724 22.5235 139.371 24.2941C141.018 26.0647 143.118 26.9294 145.671 26.9294C147.112 26.9294 148.429 26.6 149.665 25.9412C150.9 25.3235 152.135 24.2941 153.371 22.8941V32.8588C151.929 33.5588 150.529 34.0529 149.088 34.4235C147.647 34.7529 146.206 34.9588 144.765 34.9588C142.912 34.9588 141.265 34.7118 139.7 34.3C138.177 33.8471 136.735 33.1882 135.459 32.3235C132.947 30.6353 131.053 28.5765 129.735 26.0235C128.459 23.4706 127.8 20.6294 127.8 17.4588C127.8 14.9059 128.212 12.6 129.035 10.5C129.859 8.44118 131.135 6.54706 132.782 4.85882C134.347 3.21176 136.159 2.01765 138.135 1.19412C140.112 0.411765 142.335 0 144.765 0C146.206 0 147.647 0.164706 149.088 0.535294C150.529 0.864706 151.929 1.4 153.371 2.1V2.1Z" fill="#BB3B40"/>
<path fill-rule="evenodd" clip-rule="evenodd" d="M174.947 27.2998C177.459 27.2998 179.559 26.3528 181.206 24.541C182.853 22.6881 183.677 20.341 183.677 17.4998C183.677 14.741 182.853 12.394 181.165 10.541C179.518 8.6469 177.418 7.74102 174.947 7.74102C172.435 7.74102 170.335 8.6469 168.688 10.4998C167.041 12.394 166.218 14.6998 166.218 17.4998C166.218 20.3822 167.041 22.7293 168.647 24.541C170.294 26.394 172.394 27.2998 174.947 27.2998V27.2998ZM192.776 17.4998C192.776 19.9293 192.324 22.1528 191.459 24.2528C190.594 26.3528 189.318 28.2057 187.629 29.8528C185.9 31.4998 183.965 32.7763 181.782 33.641C179.6 34.5469 177.335 34.9998 174.947 34.9998C172.559 34.9998 170.294 34.5469 168.112 33.641C165.929 32.7763 163.994 31.4998 162.347 29.8528C160.618 28.2057 159.341 26.3528 158.435 24.2116C157.529 22.1116 157.118 19.8881 157.118 17.4998C157.118 15.1116 157.529 12.8881 158.435 10.7881C159.341 8.68807 160.618 6.83513 162.347 5.1469C163.994 3.54102 165.929 2.26455 168.112 1.35866C170.294 0.493957 172.559 0.0410156 174.947 0.0410156C177.335 0.0410156 179.6 0.493957 181.824 1.35866C184.006 2.26455 185.941 3.54102 187.629 5.1469C189.276 6.79396 190.553 8.68807 191.459 10.7881C192.324 12.8881 192.776 15.1116 192.776 17.4998Z" fill="#BB3B40"/>
<path fill-rule="evenodd" clip-rule="evenodd" d="M236.753 34.095H228.271L226.294 19.7244C226.171 18.695 226.047 17.542 225.924 16.3067C225.8 15.0714 225.718 13.7126 225.635 12.2303C225.388 13.6303 224.977 15.4009 224.359 17.5009C224.235 17.9538 224.112 18.2832 224.071 18.4891L219.541 34.095H213.488L208.918 18.4891C208.877 18.2832 208.753 17.9538 208.671 17.5009C208.012 15.4009 207.6 13.6714 207.394 12.2714C207.312 13.5067 207.188 14.7832 207.065 16.0185C206.941 17.2538 206.818 18.4891 206.653 19.7244L204.677 34.095H196.235L201.382 0.783203H210.4L215.424 17.9538C215.465 18.0773 215.506 18.2832 215.629 18.5714C216.082 20.095 216.371 21.4126 216.494 22.4832C216.577 21.9067 216.659 21.2479 216.824 20.5479C217.029 19.8067 217.235 18.942 217.524 17.9126L222.629 0.783203H231.647L236.753 34.095V34.095Z" fill="#BB3B40"/>
<path fill-rule="evenodd" clip-rule="evenodd" d="M240.83 5.76471H242.106C242.724 5.76471 243.135 5.68235 243.382 5.47647C243.588 5.31177 243.712 5.06471 243.712 4.77647C243.712 4.57059 243.671 4.40588 243.547 4.24118C243.424 4.07647 243.3 3.95294 243.094 3.91176C242.888 3.82941 242.559 3.78824 242.024 3.78824H240.83V5.76471V5.76471ZM239.759 9.47059V2.92353H242.024C242.806 2.92353 243.341 2.96471 243.712 3.08824C244.041 3.21176 244.288 3.41765 244.535 3.70588C244.741 4.03529 244.824 4.32353 244.824 4.69412C244.824 5.14706 244.659 5.55882 244.288 5.92941C243.959 6.3 243.506 6.46471 242.971 6.50588C243.177 6.62941 243.382 6.75294 243.506 6.87647C243.753 7.12353 244.082 7.57647 244.453 8.15294L245.277 9.47059H244L243.382 8.4C242.93 7.61765 242.6 7.08235 242.312 6.87647C242.106 6.75294 241.818 6.67059 241.447 6.67059H240.83V9.47059H239.759ZM242.435 1.02941C243.3 1.02941 244.124 1.23529 244.947 1.68824C245.73 2.1 246.388 2.71765 246.841 3.54118C247.294 4.36471 247.541 5.22941 247.541 6.09412C247.541 6.95882 247.294 7.78235 246.841 8.60588C246.388 9.42941 245.771 10.0471 244.988 10.5C244.165 10.9529 243.341 11.1588 242.435 11.1588C241.571 11.1588 240.747 10.9529 239.924 10.5C239.1 10.0471 238.482 9.42941 238.03 8.60588C237.577 7.78235 237.371 6.95882 237.371 6.09412C237.371 5.22941 237.577 4.36471 238.071 3.54118C238.524 2.71765 239.141 2.1 239.965 1.68824C240.747 1.23529 241.612 1.02941 242.435 1.02941V1.02941ZM242.435 0C243.465 0 244.453 0.247059 245.441 0.782353C246.388 1.31765 247.171 2.05882 247.706 3.04706C248.241 3.99412 248.53 5.02353 248.53 6.09412C248.53 7.12353 248.241 8.15294 247.706 9.1C247.171 10.0882 246.43 10.8294 245.482 11.3647C244.494 11.9 243.506 12.1882 242.435 12.1882C241.406 12.1882 240.377 11.9 239.43 11.3647C238.441 10.8294 237.7 10.0882 237.165 9.1C236.63 8.15294 236.341 7.12353 236.341 6.09412C236.341 5.02353 236.63 3.99412 237.165 3.04706C237.7 2.05882 238.482 1.31765 239.471 0.782353C240.418 0.247059 241.406 0 242.435 0V0Z" fill="#252726"/>
</g>
<defs>
<clipPath id="clip0_163_9">
<rect width="250" height="35" fill="white"/>
</clipPath>
</defs>
</svg>
