<svg width="135" height="20" viewBox="0 0 135 20" fill="none" xmlns="http://www.w3.org/2000/svg">
<path d="M9.9 19.8C4.4 19.8 0 15.4 0 9.9C0 4.4 4.4 0 9.9 0H21.5C27 0 31.4 4.4 31.4 9.9C31.4 15.4 27 19.8 21.5 19.8H9.9ZM21.2 16.3C24.8 16.3 27.6 13.4 27.6 9.9C27.6 6.3 24.7 3.5 21.2 3.5H10.2C6.6 3.5 3.8 6.4 3.8 9.9C3.8 13.4 6.7 16.3 10.2 16.3H21.2Z" fill="#BE4331"/>
<path d="M45.8535 10.6055C45.8535 11.2657 45.7715 11.8672 45.6074 12.4102C45.4434 12.9493 45.1934 13.4141 44.8574 13.8047C44.5254 14.1953 44.1035 14.4961 43.5918 14.7071C43.0801 14.9141 42.4746 15.0176 41.7754 15.0176C41.0762 15.0176 40.4707 14.9141 39.959 14.7071C39.4473 14.4961 39.0234 14.1953 38.6875 13.8047C38.3555 13.4141 38.1074 12.9473 37.9434 12.4043C37.7793 11.8614 37.6973 11.2578 37.6973 10.5938C37.6973 9.70703 37.8418 8.93554 38.1309 8.27929C38.4238 7.61913 38.873 7.10742 39.4785 6.74413C40.084 6.38085 40.8535 6.19921 41.7871 6.19921C42.7168 6.19921 43.4805 6.38085 44.0781 6.74413C44.6797 7.10742 45.125 7.61913 45.4141 8.27929C45.707 8.93945 45.8535 9.71484 45.8535 10.6055ZM39.6016 10.6055C39.6016 11.2032 39.6758 11.7188 39.8242 12.1524C39.9766 12.5821 40.2129 12.9141 40.5332 13.1485C40.8535 13.3789 41.2676 13.4942 41.7754 13.4942C42.291 13.4942 42.709 13.3789 43.0293 13.1485C43.3496 12.9141 43.582 12.5821 43.7266 12.1524C43.875 11.7188 43.9492 11.2032 43.9492 10.6055C43.9492 9.70703 43.7812 8.99999 43.4453 8.48437C43.1094 7.96874 42.5566 7.71093 41.7871 7.71093C41.2754 7.71093 40.8574 7.82812 40.5332 8.06249C40.2129 8.29296 39.9766 8.62499 39.8242 9.05859C39.6758 9.48828 39.6016 10.0039 39.6016 10.6055ZM51.1445 8.22656C51.2344 8.22656 51.3379 8.23242 51.4551 8.24413C51.5762 8.25195 51.6738 8.26367 51.748 8.27929L51.6133 9.95507C51.5547 9.93554 51.4707 9.92187 51.3613 9.91406C51.2559 9.90234 51.1641 9.89648 51.0859 9.89648C50.8555 9.89648 50.6309 9.92578 50.4121 9.98437C50.1973 10.043 50.0039 10.1387 49.832 10.2715C49.6602 10.4004 49.5234 10.5723 49.4219 10.7871C49.3242 10.9981 49.2754 11.2578 49.2754 11.5664V14.9004H47.4883V8.3496H48.8418L49.1055 9.45117H49.1934C49.3223 9.22851 49.4824 9.02538 49.6738 8.84179C49.8691 8.65429 50.0898 8.50585 50.3359 8.39648C50.5859 8.2832 50.8555 8.22656 51.1445 8.22656ZM55.6211 8.21484C56.5 8.21484 57.1738 8.40624 57.6426 8.78906C58.1113 9.17187 58.3457 9.7539 58.3457 10.5352V14.9004H57.0977L56.752 14.0098H56.7051C56.5176 14.2442 56.3262 14.4356 56.1309 14.584C55.9355 14.7325 55.7109 14.8418 55.457 14.9121C55.2031 14.9825 54.8945 15.0176 54.5312 15.0176C54.1445 15.0176 53.7969 14.9434 53.4883 14.795C53.1836 14.6465 52.9434 14.42 52.7676 14.1153C52.5918 13.8067 52.5039 13.416 52.5039 12.9434C52.5039 12.2481 52.748 11.7364 53.2363 11.4082C53.7246 11.0762 54.457 10.8926 55.4336 10.8575L56.5703 10.8223V10.5352C56.5703 10.1914 56.4805 9.93945 56.3008 9.77929C56.1211 9.61913 55.8711 9.53906 55.5508 9.53906C55.2344 9.53906 54.9238 9.58398 54.6191 9.67382C54.3145 9.76367 54.0098 9.87695 53.7051 10.0137L53.1133 8.80663C53.4609 8.62304 53.8496 8.47851 54.2793 8.37304C54.7129 8.26757 55.1602 8.21484 55.6211 8.21484ZM56.5703 11.8653L55.8789 11.8887C55.3008 11.9043 54.8984 12.0078 54.6719 12.1993C54.4492 12.3907 54.3379 12.6426 54.3379 12.9551C54.3379 13.2285 54.418 13.4239 54.5781 13.541C54.7383 13.6543 54.9473 13.711 55.2051 13.711C55.5879 13.711 55.9102 13.5977 56.1719 13.3711C56.4375 13.1446 56.5703 12.8223 56.5703 12.4043V11.8653ZM62.8516 15.0176C62.2031 15.0176 61.6504 14.9004 61.1934 14.666C60.7363 14.4278 60.3887 14.0606 60.1504 13.5645C59.9121 13.0684 59.793 12.4336 59.793 11.6602C59.793 10.8594 59.9277 10.2071 60.1973 9.70312C60.4707 9.19531 60.8477 8.82226 61.3281 8.58398C61.8125 8.3457 62.373 8.22656 63.0098 8.22656C63.4629 8.22656 63.8535 8.27148 64.1816 8.36132C64.5137 8.44726 64.8027 8.55078 65.0488 8.67187L64.5215 10.0547C64.2402 9.9414 63.9785 9.8496 63.7363 9.77929C63.4941 9.70507 63.252 9.66796 63.0098 9.66796C62.6973 9.66796 62.4375 9.74218 62.2305 9.89062C62.0234 10.0352 61.8691 10.2539 61.7676 10.5469C61.666 10.8399 61.6152 11.2071 61.6152 11.6485C61.6152 12.0821 61.6699 12.4414 61.7793 12.7266C61.8887 13.0118 62.0469 13.2246 62.2539 13.3653C62.4609 13.502 62.7129 13.5703 63.0098 13.5703C63.3809 13.5703 63.7109 13.5215 64 13.4239C64.2891 13.3223 64.5703 13.1817 64.8438 13.002V14.5313C64.5703 14.7032 64.2832 14.8262 63.9824 14.9004C63.6855 14.9785 63.3086 15.0176 62.8516 15.0176ZM68.1543 14.9004H66.3672V5.7832H68.1543V14.9004ZM72.7363 8.22656C73.3418 8.22656 73.8633 8.34374 74.3008 8.57812C74.7383 8.80859 75.0762 9.14453 75.3145 9.58593C75.5527 10.0274 75.6719 10.5664 75.6719 11.2032V12.0703H71.4473C71.4668 12.5743 71.6172 12.9707 71.8984 13.2598C72.1836 13.545 72.5781 13.6875 73.082 13.6875C73.5 13.6875 73.8828 13.6446 74.2305 13.5586C74.5781 13.4727 74.9355 13.3438 75.3027 13.1719V14.5547C74.9785 14.7149 74.6387 14.8321 74.2832 14.9063C73.9316 14.9805 73.5039 15.0176 73 15.0176C72.3438 15.0176 71.7617 14.8965 71.2539 14.6543C70.75 14.4121 70.3535 14.043 70.0645 13.5469C69.7793 13.0508 69.6367 12.4258 69.6367 11.6719C69.6367 10.9063 69.7656 10.2696 70.0234 9.76171C70.2852 9.24999 70.6484 8.86718 71.1133 8.61328C71.5781 8.35546 72.1191 8.22656 72.7363 8.22656ZM72.748 9.49804C72.4004 9.49804 72.1113 9.60937 71.8809 9.83203C71.6543 10.0547 71.5234 10.4043 71.4883 10.8809H73.9961C73.9922 10.6153 73.9434 10.3789 73.8496 10.1719C73.7598 9.96484 73.623 9.80078 73.4395 9.67968C73.2598 9.55859 73.0293 9.49804 72.748 9.49804ZM85.627 14.9004L85.0059 12.8614H81.8828L81.2617 14.9004H79.3047L82.3281 6.29882H84.5488L87.584 14.9004H85.627ZM84.5723 11.3379L83.9512 9.3457C83.9121 9.21288 83.8594 9.04296 83.793 8.83593C83.7305 8.62499 83.666 8.4121 83.5996 8.19726C83.5371 7.97851 83.4863 7.78906 83.4473 7.6289C83.4082 7.78906 83.3535 7.98828 83.2832 8.22656C83.2168 8.46093 83.1523 8.68359 83.0898 8.89453C83.0273 9.10546 82.9824 9.25585 82.9551 9.3457L82.3398 11.3379H84.5723ZM91.1875 15.0176C90.5391 15.0176 89.9863 14.9004 89.5293 14.666C89.0723 14.4278 88.7246 14.0606 88.4863 13.5645C88.248 13.0684 88.1289 12.4336 88.1289 11.6602C88.1289 10.8594 88.2637 10.2071 88.5332 9.70312C88.8066 9.19531 89.1836 8.82226 89.6641 8.58398C90.1484 8.3457 90.709 8.22656 91.3457 8.22656C91.7988 8.22656 92.1895 8.27148 92.5176 8.36132C92.8496 8.44726 93.1387 8.55078 93.3848 8.67187L92.8574 10.0547C92.5762 9.9414 92.3145 9.8496 92.0723 9.77929C91.8301 9.70507 91.5879 9.66796 91.3457 9.66796C91.0332 9.66796 90.7734 9.74218 90.5664 9.89062C90.3594 10.0352 90.2051 10.2539 90.1035 10.5469C90.002 10.8399 89.9512 11.2071 89.9512 11.6485C89.9512 12.0821 90.0059 12.4414 90.1152 12.7266C90.2246 13.0118 90.3828 13.2246 90.5898 13.3653C90.7969 13.502 91.0488 13.5703 91.3457 13.5703C91.7168 13.5703 92.0469 13.5215 92.3359 13.4239C92.625 13.3223 92.9062 13.1817 93.1797 13.002V14.5313C92.9062 14.7032 92.6191 14.8262 92.3184 14.9004C92.0215 14.9785 91.6445 15.0176 91.1875 15.0176ZM97.3867 8.21484C98.2656 8.21484 98.9395 8.40624 99.4082 8.78906C99.877 9.17187 100.111 9.7539 100.111 10.5352V14.9004H98.8633L98.5176 14.0098H98.4707C98.2832 14.2442 98.0918 14.4356 97.8965 14.584C97.7012 14.7325 97.4766 14.8418 97.2227 14.9121C96.9688 14.9825 96.6602 15.0176 96.2969 15.0176C95.9102 15.0176 95.5625 14.9434 95.2539 14.795C94.9492 14.6465 94.709 14.42 94.5332 14.1153C94.3574 13.8067 94.2695 13.416 94.2695 12.9434C94.2695 12.2481 94.5137 11.7364 95.002 11.4082C95.4902 11.0762 96.2227 10.8926 97.1992 10.8575L98.3359 10.8223V10.5352C98.3359 10.1914 98.2461 9.93945 98.0664 9.77929C97.8867 9.61913 97.6367 9.53906 97.3164 9.53906C97 9.53906 96.6895 9.58398 96.3848 9.67382C96.0801 9.76367 95.7754 9.87695 95.4707 10.0137L94.8789 8.80663C95.2266 8.62304 95.6152 8.47851 96.0449 8.37304C96.4785 8.26757 96.9258 8.21484 97.3867 8.21484ZM98.3359 11.8653L97.6445 11.8887C97.0664 11.9043 96.6641 12.0078 96.4375 12.1993C96.2148 12.3907 96.1035 12.6426 96.1035 12.9551C96.1035 13.2285 96.1836 13.4239 96.3438 13.541C96.5039 13.6543 96.7129 13.711 96.9707 13.711C97.3535 13.711 97.6758 13.5977 97.9375 13.3711C98.2031 13.1446 98.3359 12.8223 98.3359 12.4043V11.8653ZM104.031 15.0176C103.301 15.0176 102.705 14.7325 102.244 14.1621C101.787 13.5879 101.559 12.7461 101.559 11.6368C101.559 10.5157 101.791 9.66796 102.256 9.09374C102.721 8.51562 103.328 8.22656 104.078 8.22656C104.391 8.22656 104.666 8.26953 104.904 8.35546C105.143 8.4414 105.348 8.55663 105.52 8.70117C105.695 8.8457 105.844 9.00781 105.965 9.18749H106.023C106 9.06249 105.971 8.8789 105.936 8.63671C105.904 8.39062 105.889 8.13867 105.889 7.88085V5.7832H107.682V14.9004H106.311L105.965 14.0508H105.889C105.775 14.2305 105.633 14.3946 105.461 14.543C105.293 14.6875 105.092 14.8028 104.857 14.8887C104.623 14.9746 104.348 15.0176 104.031 15.0176ZM104.658 13.5938C105.146 13.5938 105.49 13.4493 105.689 13.1602C105.893 12.8672 106 12.4278 106.012 11.8418V11.6485C106.012 11.0118 105.914 10.5254 105.719 10.1895C105.523 9.8496 105.16 9.67968 104.629 9.67968C104.234 9.67968 103.926 9.8496 103.703 10.1895C103.48 10.5293 103.369 11.0196 103.369 11.6602C103.369 12.3008 103.48 12.7832 103.703 13.1075C103.93 13.4317 104.248 13.5938 104.658 13.5938ZM112.252 8.22656C112.857 8.22656 113.379 8.34374 113.816 8.57812C114.254 8.80859 114.592 9.14453 114.83 9.58593C115.068 10.0274 115.188 10.5664 115.188 11.2032V12.0703H110.963C110.982 12.5743 111.133 12.9707 111.414 13.2598C111.699 13.545 112.094 13.6875 112.598 13.6875C113.016 13.6875 113.398 13.6446 113.746 13.5586C114.094 13.4727 114.451 13.3438 114.818 13.1719V14.5547C114.494 14.7149 114.154 14.8321 113.799 14.9063C113.447 14.9805 113.02 15.0176 112.516 15.0176C111.859 15.0176 111.277 14.8965 110.77 14.6543C110.266 14.4121 109.869 14.043 109.58 13.5469C109.295 13.0508 109.152 12.4258 109.152 11.6719C109.152 10.9063 109.281 10.2696 109.539 9.76171C109.801 9.24999 110.164 8.86718 110.629 8.61328C111.094 8.35546 111.635 8.22656 112.252 8.22656ZM112.264 9.49804C111.916 9.49804 111.627 9.60937 111.396 9.83203C111.17 10.0547 111.039 10.4043 111.004 10.8809H113.512C113.508 10.6153 113.459 10.3789 113.365 10.1719C113.275 9.96484 113.139 9.80078 112.955 9.67968C112.775 9.55859 112.545 9.49804 112.264 9.49804ZM124.334 8.22656C125.076 8.22656 125.637 8.41796 126.016 8.80078C126.398 9.17968 126.59 9.78906 126.59 10.6289V14.9004H124.797V11.0743C124.797 10.6055 124.717 10.252 124.557 10.0137C124.396 9.77538 124.148 9.65624 123.812 9.65624C123.34 9.65624 123.004 9.82617 122.805 10.166C122.605 10.502 122.506 10.9844 122.506 11.6133V14.9004H120.719V11.0743C120.719 10.7618 120.684 10.5 120.613 10.2891C120.543 10.0782 120.436 9.91992 120.291 9.81445C120.146 9.70898 119.961 9.65624 119.734 9.65624C119.402 9.65624 119.141 9.74023 118.949 9.9082C118.762 10.0723 118.627 10.3164 118.545 10.6407C118.467 10.961 118.428 11.3535 118.428 11.8184V14.9004H116.641V8.3496H118.006L118.246 9.18749H118.346C118.479 8.96093 118.645 8.77734 118.844 8.63671C119.047 8.49609 119.27 8.39257 119.512 8.32617C119.754 8.25976 120 8.22656 120.25 8.22656C120.73 8.22656 121.137 8.30468 121.469 8.46093C121.805 8.61718 122.062 8.85937 122.242 9.18749H122.4C122.596 8.85156 122.871 8.60742 123.227 8.45507C123.586 8.30273 123.955 8.22656 124.334 8.22656ZM127.492 8.3496H129.449L130.686 12.0352C130.725 12.1524 130.758 12.2715 130.785 12.3926C130.812 12.5137 130.836 12.6387 130.855 12.7676C130.875 12.8965 130.891 13.0313 130.902 13.1719H130.938C130.961 12.961 130.992 12.7637 131.031 12.5801C131.074 12.3965 131.127 12.2149 131.189 12.0352L132.402 8.3496H134.318L131.547 15.7383C131.379 16.1914 131.16 16.5684 130.891 16.8692C130.621 17.1739 130.311 17.4024 129.959 17.5547C129.611 17.7071 129.229 17.7832 128.811 17.7832C128.607 17.7832 128.432 17.7715 128.283 17.7481C128.135 17.7285 128.008 17.7071 127.902 17.6836V16.2657C127.984 16.2852 128.088 16.3028 128.213 16.3184C128.338 16.334 128.469 16.3418 128.605 16.3418C128.855 16.3418 129.07 16.2891 129.25 16.1836C129.43 16.0782 129.58 15.9356 129.701 15.7559C129.822 15.5801 129.918 15.3868 129.988 15.1758L130.094 14.8535L127.492 8.3496Z" fill="#BE4331"/>
</svg>
