<svg width="762" height="534" viewBox="0 0 762 534" fill="none" xmlns="http://www.w3.org/2000/svg">
<path d="M316.971 58.649C341.586 33.1545 375.872 17.0373 413.674 17.0373C464.077 17.0373 507.74 45.1692 531.183 86.7809C551.403 77.6966 573.967 72.7149 597.703 72.7149C688.546 72.7149 761.806 146.854 761.806 238.283C761.806 329.711 688.253 403.851 597.703 403.851C586.568 403.851 575.725 402.678 565.469 400.627C544.956 437.257 505.689 462.166 460.56 462.166C441.806 462.166 423.93 457.77 408.106 450.151C387.3 499.089 338.656 533.667 282.099 533.667C223.198 533.667 172.795 496.451 153.454 443.997C144.956 445.755 136.165 446.634 127.374 446.634C57.0439 446.634 0.194092 389.198 0.194092 317.99C0.194092 270.517 25.6886 228.905 63.7838 206.634C55.8718 188.759 51.4761 168.832 51.4761 147.733C51.1831 66.5611 117.703 0.333984 199.168 0.333984C247.227 0.333984 290.011 23.1911 316.971 58.649" fill="#00A1E0"/>
<path d="M110.377 276.963L113.601 268.465C114.187 267 115.066 267.586 115.652 267.879C116.531 268.465 117.117 268.758 118.289 269.637C127.374 275.498 135.872 275.498 138.509 275.498C145.249 275.498 149.645 271.982 149.645 267V266.707C149.645 261.432 143.198 259.381 135.579 257.037L133.82 256.451C123.564 253.52 112.429 249.125 112.429 236.231V235.938C112.429 223.63 122.392 214.839 136.751 214.839H138.216C146.714 214.839 154.626 217.183 160.487 220.993C161.073 221.286 161.659 221.872 161.366 222.751C161.073 223.63 158.436 230.37 158.143 231.249C157.557 232.714 156.092 231.835 156.092 231.835C150.817 228.905 142.905 226.853 136.165 226.853C130.011 226.853 126.201 230.077 126.201 234.473V234.766C126.201 239.747 132.941 242.092 140.56 244.436L142.026 244.729C152.282 247.952 163.124 252.348 163.124 264.949V265.242C163.124 278.722 153.454 286.927 137.923 286.927C130.304 286.927 122.978 285.755 115.066 281.652C113.601 280.773 112.135 280.187 110.67 279.015C110.377 278.429 109.791 278.136 110.377 276.963V276.963ZM338.949 276.963L342.172 268.465C342.758 267 343.93 267.586 344.223 267.879C345.103 268.465 345.689 268.758 346.861 269.637C355.945 275.498 364.443 275.498 367.081 275.498C373.82 275.498 378.216 271.982 378.216 267V266.707C378.216 261.432 371.769 259.381 364.15 257.037L362.392 256.451C352.135 253.52 341 249.125 341 236.231V235.938C341 223.63 350.963 214.839 365.322 214.839H366.787C375.286 214.839 383.198 217.183 389.059 220.993C389.645 221.286 390.231 221.872 389.938 222.751C389.645 223.63 387.007 230.37 386.714 231.249C386.128 232.714 384.663 231.835 384.663 231.835C379.388 228.905 371.476 226.853 364.736 226.853C358.582 226.853 354.773 230.077 354.773 234.473V234.766C354.773 239.747 361.513 242.092 369.132 244.436L370.597 244.729C380.853 247.952 391.696 252.348 391.696 264.949V265.242C391.696 278.722 382.026 286.927 366.494 286.927C358.875 286.927 351.549 285.755 343.637 281.652C342.172 280.773 340.707 280.187 339.242 279.015C339.242 278.429 338.656 278.136 338.949 276.963V276.963ZM508.326 236.817C509.498 241.212 510.377 245.901 510.377 250.883C510.377 255.864 509.791 260.553 508.326 264.949C507.154 269.344 505.103 273.154 502.465 276.377C499.828 279.601 496.311 282.238 492.502 283.996C488.399 285.755 483.711 286.634 478.436 286.634C473.161 286.634 468.472 285.755 464.37 283.996C460.267 282.238 457.044 279.601 454.407 276.377C451.769 273.154 449.718 269.344 448.546 264.949C447.374 260.553 446.494 255.864 446.494 250.883C446.494 245.901 447.081 241.212 448.546 236.817C449.718 232.421 451.769 228.612 454.407 225.388C457.044 222.165 460.56 219.527 464.37 217.769C468.472 216.011 473.161 214.839 478.436 214.839C483.711 214.839 488.399 215.718 492.502 217.769C496.604 219.527 499.828 222.165 502.465 225.388C505.103 228.612 507.154 232.421 508.326 236.817ZM495.139 250.59C495.139 242.971 493.674 237.11 491.037 233.007C488.399 228.905 484.004 226.853 478.436 226.853C472.575 226.853 468.472 228.905 465.835 233.007C463.198 237.11 461.733 242.971 461.733 250.59C461.733 258.209 463.198 264.07 465.835 268.465C468.472 272.568 472.575 274.619 478.436 274.619C484.297 274.619 488.399 272.568 491.037 268.465C493.967 264.363 495.139 258.209 495.139 250.59ZM615.579 272.568L618.802 281.359C619.095 282.531 618.216 282.824 618.216 282.824C613.234 284.875 606.494 286.048 599.755 286.048C588.326 286.048 579.828 282.824 573.967 276.377C568.106 269.93 565.176 261.139 565.176 250.297C565.176 245.315 565.762 240.626 567.227 236.231C568.692 231.835 570.744 228.026 573.674 224.802C576.604 221.579 580.121 218.941 584.223 217.183C588.326 215.425 593.308 214.253 598.875 214.253C602.685 214.253 605.908 214.546 608.546 214.839C611.476 215.425 615.579 216.304 617.337 217.183C617.63 217.183 618.509 217.769 618.216 218.648C617.044 222.165 616.165 224.509 614.993 227.44C614.407 228.905 613.527 228.319 613.527 228.319C609.132 226.853 605.029 226.267 599.755 226.267C593.308 226.267 588.326 228.319 585.396 232.714C582.172 236.817 580.414 242.385 580.414 250.004C580.414 258.209 582.465 264.07 585.982 267.879C589.498 271.689 594.48 273.447 600.927 273.447C603.564 273.447 605.908 273.154 607.96 272.861C610.011 272.568 612.062 271.982 614.114 271.103C613.82 271.689 614.993 271.396 615.579 272.568ZM682.099 234.179C685.029 244.143 683.564 252.641 683.271 253.227C683.271 254.399 682.099 254.399 682.099 254.399H637.85C638.143 261.139 639.608 265.828 643.124 269.051C646.348 272.275 651.33 274.326 658.363 274.326C668.912 274.326 673.308 272.275 676.531 271.103C676.531 271.103 677.703 270.81 678.289 271.982L681.22 280.187C681.806 281.652 681.22 281.945 680.927 282.238C678.289 283.703 671.549 286.634 658.656 286.634C652.502 286.634 646.934 285.755 642.538 283.996C638.143 282.238 634.333 279.894 631.403 276.67C628.472 273.447 626.421 269.637 624.956 265.535C623.491 261.139 622.905 256.451 622.905 251.469C622.905 246.487 623.491 241.799 624.956 237.403C626.128 233.007 628.179 229.198 630.817 225.974C633.454 222.751 636.971 220.114 641.073 218.355C645.176 216.304 650.157 215.425 655.725 215.425C660.414 215.425 664.809 216.304 668.326 218.062C670.963 219.234 673.894 221.286 676.824 224.509C678.289 225.681 680.927 230.077 682.099 234.179V234.179ZM638.143 243.557H669.498C669.205 239.454 668.326 235.938 666.568 233.007C663.93 228.905 660.121 226.56 654.26 226.56C648.399 226.56 644.297 228.905 641.659 233.007C639.901 235.645 639.022 239.161 638.143 243.557ZM328.399 234.179C331.33 244.143 329.864 252.641 329.864 253.227C329.864 254.399 328.692 254.399 328.692 254.399H284.443C284.736 261.139 286.201 265.828 289.718 269.051C292.941 272.275 297.923 274.326 304.956 274.326C315.505 274.326 319.901 272.275 323.124 271.103C323.124 271.103 324.297 270.81 324.883 271.982L327.813 280.187C328.399 281.652 327.813 281.945 327.52 282.238C324.883 283.703 318.143 286.634 305.249 286.634C299.095 286.634 293.527 285.755 289.132 283.996C284.736 282.238 280.927 279.894 277.996 276.67C275.066 273.447 273.015 269.637 271.549 265.535C270.084 261.139 269.498 256.451 269.498 251.469C269.498 246.487 270.084 241.799 271.549 237.403C272.722 233.007 274.773 229.198 277.41 225.974C280.048 222.751 283.564 220.114 287.667 218.355C291.769 216.304 296.751 215.425 302.319 215.425C307.007 215.425 311.403 216.304 314.919 218.062C317.557 219.234 320.487 221.286 323.418 224.509C324.59 225.681 327.52 230.077 328.399 234.179V234.179ZM284.443 243.557H316.092C315.798 239.454 314.919 235.938 313.161 233.007C310.524 228.905 306.714 226.56 300.853 226.56C294.993 226.56 290.89 228.905 288.253 233.007C286.201 235.645 285.322 239.161 284.443 243.557ZM206.787 241.212C206.787 241.212 210.304 241.505 214.114 242.092V240.333C214.114 234.473 212.941 231.542 210.597 229.784C208.253 228.026 204.443 226.853 199.755 226.853C199.755 226.853 188.912 226.853 180.414 231.249C180.121 231.542 179.828 231.542 179.828 231.542C179.828 231.542 178.656 231.835 178.363 230.956L175.139 222.458C174.553 221.286 175.432 220.7 175.432 220.7C179.535 217.476 188.912 215.718 188.912 215.718C192.135 215.132 197.41 214.546 200.634 214.546C209.425 214.546 216.165 216.597 220.853 220.7C225.542 224.802 227.886 231.249 227.886 240.333V280.773C227.886 280.773 227.886 281.945 227.007 282.238C227.007 282.238 225.249 282.824 223.784 283.117C222.319 283.41 217.044 284.582 212.648 285.168C208.253 286.048 203.857 286.341 199.168 286.341C194.773 286.341 190.963 286.048 187.447 285.168C183.93 284.289 181 283.117 178.363 281.359C176.018 279.601 173.967 277.256 172.502 274.326C171.037 271.689 170.45 268.172 170.45 264.363C170.45 260.553 171.33 257.037 172.795 254.106C174.26 251.176 176.604 248.831 179.242 246.78C181.879 244.729 185.103 243.557 188.326 242.385C191.842 241.505 195.359 240.919 199.168 240.919C202.685 241.212 205.029 241.212 206.787 241.212V241.212ZM189.205 272.275C189.205 272.275 193.308 275.498 202.099 274.912C208.546 274.619 214.114 273.447 214.114 273.447V253.227C214.114 253.227 208.546 252.348 202.099 252.348C193.015 252.348 189.205 255.571 189.205 255.571C186.568 257.33 185.396 260.26 185.396 264.07C185.396 266.414 185.982 268.465 186.861 269.93C187.154 270.516 187.447 271.103 189.205 272.275ZM562.831 218.648C562.538 219.821 560.194 225.974 559.608 228.026C559.315 228.905 558.729 229.198 557.85 229.198C557.85 229.198 555.212 228.612 552.868 228.612C551.403 228.612 549.059 228.905 547.007 229.491C544.956 230.077 543.198 231.249 541.44 232.714C539.681 234.179 538.509 236.524 537.63 239.161C536.751 241.799 536.165 246.194 536.165 250.883V283.703C536.165 284.582 535.579 285.168 534.7 285.168H522.978C522.099 285.168 521.513 284.582 521.513 283.703V217.769C521.513 216.89 522.099 216.304 522.685 216.304H534.114C534.993 216.304 535.286 216.89 535.286 217.769V223.044C537.044 220.7 539.974 218.648 542.612 217.476C545.249 216.304 548.472 215.425 554.04 215.718C556.971 216.011 560.78 216.597 561.366 216.89C562.538 217.183 563.125 217.476 562.831 218.648V218.648ZM454.113 188.172C454.407 188.172 455.286 188.758 454.993 189.637L451.476 199.015C451.183 199.601 450.89 200.187 449.425 199.601C449.132 199.601 448.546 199.308 447.081 199.015C446.201 198.722 444.736 198.722 443.564 198.722C441.806 198.722 440.341 199.015 438.875 199.308C437.41 199.601 436.238 200.48 435.066 201.652C433.695 202.989 432.6 204.582 431.842 206.341C430.084 211.029 429.498 216.011 429.498 216.304H443.564C444.736 216.304 445.029 216.89 445.029 217.769L443.271 226.853C442.978 228.319 441.806 228.026 441.806 228.026H427.154L417.777 284.582C416.604 290.443 415.432 295.425 413.967 299.527C412.502 303.63 410.744 306.56 408.106 309.491C405.762 312.128 403.124 314.179 399.901 315.059C396.971 316.231 393.161 316.817 389.059 316.817C387.007 316.817 384.956 316.817 382.612 316.231C380.853 315.938 379.974 315.645 378.509 315.059C377.923 314.766 377.63 314.179 377.923 313.3C378.216 312.421 380.853 305.388 381.146 304.216C381.733 303.044 382.612 303.63 382.612 303.63C383.491 303.923 384.077 304.216 384.956 304.509C386.128 304.802 387.3 304.802 388.472 304.802C390.524 304.802 392.282 304.509 393.747 303.923C395.505 303.337 396.678 302.165 397.85 300.7C399.022 299.234 399.901 297.183 401.073 294.546C401.952 291.908 402.831 288.099 403.711 283.703L413.674 228.319H404.004C402.831 228.319 402.538 227.733 402.538 226.853L404.297 217.769C404.59 216.304 405.762 216.597 405.762 216.597H415.725L416.311 213.667C417.777 204.875 420.707 198.136 425.103 193.74C429.498 189.344 435.945 187 443.857 187C446.201 187 448.253 187.293 450.011 187.586C451.183 187.293 452.648 187.586 454.113 188.172V188.172ZM256.604 283.41C256.604 284.289 256.018 284.875 255.432 284.875H243.711C242.831 284.875 242.538 284.289 242.538 283.41V189.344C242.538 188.758 243.124 187.879 243.711 187.879H255.432C256.311 187.879 256.604 188.465 256.604 189.344V283.41Z" fill="white"/>
</svg>
