<svg width="924" height="160" viewBox="0 0 924 160" fill="none" xmlns="http://www.w3.org/2000/svg">
<path d="M207.924 0.134766L127.015 62.385C118.716 31.2644 91.7517 8.42326 58.5541 8.42326H0.461548V151.578H58.5541C91.7491 151.578 120.79 128.761 127.013 97.6416L207.918 159.866L288.847 97.6416V151.578H380.118V122.531H319.972V8.42326H286.769V62.3594L210 124.64L193.397 110.117L230.756 81.0454L270.167 49.9465L247.359 31.2913L170.589 91.4377L153.987 76.9146L230.76 18.822L207.924 0.166817V0.141176V0.134766ZM31.5899 37.4695H56.4797C61.6669 37.4695 66.7362 38.6362 71.4042 40.7747C76.0721 42.9144 80.3439 46.0247 83.9747 49.9145C87.6055 53.8042 90.5888 58.4594 92.6632 63.712C94.7376 68.9633 95.894 74.8146 95.894 81.0402C95.894 86.7454 94.8517 92.3134 92.9389 97.4659C91.0235 102.62 88.2517 107.369 84.7504 111.388C81.2503 115.408 77.0208 118.702 72.2554 121.003C67.49 123.306 62.1862 124.584 56.4797 124.584H31.5899V37.4695ZM483.861 122.538V151.584H392.576V8.42967H425.771V122.533H483.862L483.861 122.538Z" fill="#007DB8"/>
<path d="M868.247 154.213C896.331 154.213 919.149 140.17 923.537 109.455L921.781 107.7H913.883L912.128 109.455C907.74 131.395 893.699 143.682 869.126 143.682C838.409 143.682 816.469 120.864 816.469 80.493C816.469 40.1223 839.287 17.3056 869.126 17.3056C893.699 17.3056 907.741 29.5915 912.128 49.7775L913.885 51.5339H921.782L923.539 49.7801C919.154 21.6966 897.205 6.77734 868.243 6.77734C834.016 6.77734 803.3 31.3505 803.3 79.6187C803.3 129.645 834.016 154.216 868.243 154.216L868.247 154.213ZM778.73 149.824V11.1568L776.974 9.40171H762.933L761.176 11.1581L708.521 134.902H706.765L652.354 11.1581L650.598 9.40171H636.557L634.8 11.1581V149.825L636.557 151.579H644.454L646.21 149.824V32.2249H647.966L698.867 149.825L700.622 151.582H711.153L712.909 149.825L763.81 32.2249H766.443V149.825L768.198 151.582H776.096L778.729 149.825L778.73 149.824ZM607.601 149.824V143.682L605.845 141.925H530.37L528.616 140.17V87.5136L530.372 85.7584H601.458L603.213 84.0033V76.9828L601.456 75.2276H530.372L528.615 73.4712V21.6941L530.372 19.9377H605.846L607.601 18.1838V11.1607L605.845 9.40428H518.084L516.328 11.1607V149.828L518.084 151.583H605.846L607.601 149.827V149.824Z" fill="#808080"/>
</svg>
