<svg width="924" height="304" viewBox="0 0 924 304" fill="none" xmlns="http://www.w3.org/2000/svg">
<path d="M395.484 159.977C395.484 203.694 361.284 235.907 319.314 235.907C277.343 235.907 243.144 203.694 243.144 159.977C243.144 115.953 277.343 84.0469 319.314 84.0469C361.284 84.0469 395.484 115.953 395.484 159.977ZM362.14 159.977C362.14 132.659 342.319 113.967 319.314 113.967C296.309 113.967 276.488 132.659 276.488 159.977C276.488 187.022 296.309 205.987 319.314 205.987C342.319 205.987 362.14 186.988 362.14 159.977Z" fill="#EA4335"/>
<path d="M559.806 159.977C559.806 203.694 525.606 235.907 483.636 235.907C441.665 235.907 407.466 203.694 407.466 159.977C407.466 115.987 441.665 84.0469 483.636 84.0469C525.606 84.0469 559.806 115.953 559.806 159.977ZM526.462 159.977C526.462 132.659 506.641 113.967 483.636 113.967C460.631 113.967 440.809 132.659 440.809 159.977C440.809 187.022 460.631 205.987 483.636 205.987C506.641 205.987 526.462 186.988 526.462 159.977Z" fill="#FBBC05"/>
<path d="M717.281 88.6342V224.953C717.281 281.027 684.211 303.93 645.116 303.93C608.315 303.93 586.166 279.316 577.813 259.186L606.843 247.102C612.012 259.46 624.678 274.044 645.082 274.044C670.107 274.044 685.614 258.604 685.614 229.54V218.619H684.45C676.988 227.828 662.609 235.873 644.465 235.873C606.5 235.873 571.719 202.804 571.719 160.251C571.719 117.39 606.5 84.0469 644.465 84.0469C662.575 84.0469 676.953 92.0918 684.45 101.027H685.614V88.6684H717.281V88.6342ZM687.977 160.251C687.977 133.515 670.141 113.967 647.444 113.967C624.439 113.967 605.165 133.515 605.165 160.251C605.165 186.714 624.439 205.987 647.444 205.987C670.141 205.987 687.977 186.714 687.977 160.251Z" fill="#4285F4"/>
<path d="M769.487 8.73242V231.251H736.965V8.73242H769.487Z" fill="#34A853"/>
<path d="M896.22 184.967L922.101 202.221C913.748 214.579 893.618 235.872 858.837 235.872C815.702 235.872 783.488 202.529 783.488 159.942C783.488 114.788 815.976 84.0117 855.105 84.0117C894.508 84.0117 913.782 115.37 920.081 132.315L923.539 140.942L822.036 182.981C829.807 198.215 841.891 205.986 858.837 205.986C875.817 205.986 887.593 197.633 896.22 184.967ZM816.558 157.648L884.409 129.474C880.678 119.991 869.449 113.384 856.235 113.384C839.289 113.384 815.702 128.344 816.558 157.648V157.648Z" fill="#EA4335"/>
<path d="M120.04 140.223V108.009H228.595C229.656 113.623 230.204 120.265 230.204 127.454C230.204 151.623 223.597 181.509 202.303 202.802C181.592 224.369 155.129 235.872 120.074 235.872C55.0985 235.872 0.461548 182.947 0.461548 117.971C0.461548 52.9956 55.0985 0.0703125 120.074 0.0703125C156.019 0.0703125 181.626 14.1746 200.866 32.5581L178.134 55.2892C164.338 42.3489 145.647 32.2842 120.04 32.2842C72.5919 32.2842 35.4826 70.5232 35.4826 117.971C35.4826 165.419 72.5919 203.658 120.04 203.658C150.816 203.658 168.344 191.3 179.572 180.071C188.678 170.965 194.669 157.956 197.031 140.189L120.04 140.223Z" fill="#4285F4"/>
</svg>
