<svg width="70" height="19" viewBox="0 0 70 19" fill="none" xmlns="http://www.w3.org/2000/svg">
<g clip-path="url(#clip0_163_66)">
<path d="M69.9999 0H0V18.6665H69.9999V0Z" fill="#EF7F1A"/>
<path d="M4.04735 2.08698H2.43994V9.65369H4.04735V2.08698ZM8.78008 1.91211C6.88837 1.91211 5.43415 3.31158 5.43415 5.85939C5.43415 8.43999 6.81183 9.82856 8.82374 9.82856C9.87357 9.82856 10.6718 9.3694 11.1529 8.87727L10.4094 7.92597C9.9719 8.26482 9.53472 8.5602 8.90039 8.5602C7.86156 8.5602 7.129 7.76199 7.129 5.85939C7.129 3.89115 7.87245 3.12581 8.8786 3.12581C9.40341 3.12581 9.84079 3.31158 10.2563 3.67241L11.0654 2.7322C10.442 2.20719 9.78613 1.91211 8.78008 1.91211V1.91211ZM17.2414 2.08698H11.5337V3.34435H13.5456V9.65369H15.153V3.34435H17.0666L17.2414 2.08698V2.08698ZM24.8935 9.65369H26.5995L24.2814 2.08698H22.3241L19.995 9.65369H21.6681L22.0944 7.95894H24.4672L24.8935 9.65369V9.65369ZM22.3897 6.76692L23.2753 3.2788L24.1612 6.76692H22.3898H22.3897ZM30.0966 1.91211C28.2048 1.91211 26.7507 3.31158 26.7507 5.85939C26.7507 8.43999 28.1283 9.82856 30.1403 9.82856C31.19 9.82856 31.9883 9.3694 32.4693 8.87727L31.7258 7.92597C31.2884 8.26482 30.8511 8.5602 30.2169 8.5602C29.178 8.5602 28.4455 7.76199 28.4455 5.85939C28.4455 3.89115 29.1889 3.12581 30.195 3.12581C30.7198 3.12581 31.1573 3.31158 31.5727 3.67241L32.3819 2.7322C31.7586 2.20719 31.1025 1.91211 30.0966 1.91211V1.91211ZM37.541 9.65369H39.2468L36.9288 2.08698H34.9715L32.6424 9.65369H34.3155L34.7418 7.95894H37.1146L37.541 9.65369V9.65369ZM35.0371 6.76692L35.9227 3.2788L36.8085 6.76692H35.0372H35.0371ZM42.0879 2.08708H40.1087V9.65379H42.2737C44.1327 9.65379 45.9914 8.88826 45.9914 5.83771C45.9914 2.71032 44.0888 2.08708 42.0878 2.08708H42.0879ZM42.3395 3.26801C43.4328 3.26801 44.3186 3.67251 44.3186 5.83771C44.3186 7.95904 43.4767 8.47286 42.3723 8.47286H41.7162V3.26801H42.3396H42.3395ZM51.8943 2.08708H47.3784V9.65379H51.9161V8.47286H48.9857V6.38441H51.3693V5.22526H48.9857V3.25702H51.7192L51.8942 2.08698L51.8943 2.08708ZM60.0712 2.08708H58.0047L56.8346 7.30283L55.5881 2.08708H53.5433L52.953 9.65379H54.5166L54.6806 6.61394C54.7354 5.55332 54.7463 4.54746 54.6806 3.48675L56.0475 8.84459H57.5673L58.8466 3.49764C58.8138 4.3615 58.8466 5.49876 58.9122 6.58126L59.0762 9.65389H60.6508L60.0712 2.08718V2.08708ZM67.5594 2.08708H65.8647L64.3667 5.52054L62.8578 2.08708H61.0973L63.5248 6.81089V9.65379H65.1321V6.7999L67.5595 2.08708H67.5594Z" fill="#FEFEFE"/>
<path d="M66.8843 8.4707C66.9976 8.4707 67.1082 8.49982 67.2165 8.55814C67.3244 8.61626 67.4087 8.69964 67.4689 8.80787C67.5291 8.9164 67.5593 9.02938 67.5593 9.14672C67.5593 9.26317 67.5297 9.37526 67.4701 9.4825C67.4107 9.59004 67.3277 9.67351 67.2204 9.73273C67.1131 9.79234 67.001 9.82205 66.8843 9.82205C66.7672 9.82205 66.6551 9.79234 66.5479 9.73273C66.4406 9.67351 66.3573 9.59004 66.2976 9.4825C66.238 9.37516 66.2081 9.26307 66.2081 9.14672C66.2081 9.02928 66.2383 8.9163 66.2988 8.80787C66.3596 8.69964 66.4439 8.61626 66.5518 8.55814C66.6601 8.49982 66.7707 8.4707 66.8843 8.4707ZM66.8843 8.5826C66.7893 8.5826 66.6966 8.60696 66.6069 8.65558C66.5171 8.7042 66.4468 8.77391 66.3961 8.86431C66.3454 8.95482 66.3199 9.04889 66.3199 9.14672C66.3199 9.24416 66.3449 9.33734 66.3948 9.42665C66.4446 9.51587 66.5142 9.58558 66.6038 9.63539C66.6933 9.6852 66.7868 9.71015 66.8843 9.71015C66.9815 9.71015 67.075 9.6852 67.1646 9.63539C67.2541 9.58558 67.3238 9.51587 67.3733 9.42665C67.4228 9.33734 67.4475 9.24416 67.4475 9.14672C67.4475 9.04889 67.4221 8.95482 67.3717 8.86431C67.3213 8.77391 67.251 8.7042 67.1609 8.65558C67.0708 8.60696 66.9785 8.5826 66.8844 8.5826H66.8843ZM66.5877 9.51954V8.79341H66.8376C66.9232 8.79341 66.9849 8.80015 67.0231 8.81361C67.0616 8.82698 67.0918 8.85035 67.1148 8.88392C67.1373 8.91719 67.1486 8.95264 67.1486 8.99027C67.1486 9.04315 67.1296 9.08959 67.0914 9.1287C67.0535 9.16821 67.0031 9.19019 66.9402 9.19504C66.9658 9.20574 66.9866 9.21861 67.0019 9.23356C67.0312 9.26208 67.0669 9.31001 67.1095 9.37754L67.1981 9.51964H67.0558L66.991 9.40537C66.9403 9.31516 66.899 9.25871 66.8679 9.23604C66.8465 9.2195 66.8153 9.21128 66.7741 9.21158H66.705V9.51964H66.5877V9.51954ZM66.705 9.11068H66.8474C66.9155 9.11068 66.962 9.10058 66.9867 9.08048C67.0115 9.06028 67.0241 9.03334 67.0241 9.00037C67.0241 8.97898 67.0179 8.95977 67.006 8.94284C66.9942 8.92571 66.9776 8.91323 66.9565 8.90501C66.9351 8.89669 66.896 8.89244 66.8385 8.89244H66.705V9.11068V9.11068Z" fill="#FEFEFE"/>
<path d="M70 12.0723H0.00012207V17.9055H70V12.0723Z" fill="#FEFEFE"/>
<path d="M1.6615 16.4558V13.6323H2.16304V16.4558H1.6615ZM4.04791 16.4558V15.2612C4.04791 15.0849 4.01444 14.9565 3.94661 14.8755C3.87948 14.7946 3.76966 14.7538 3.61687 14.7538C3.54637 14.7538 3.47072 14.7735 3.39051 14.8137C3.3102 14.8532 3.24762 14.9032 3.20286 14.9625V16.4559H2.72103V14.3906H3.0679L3.15613 14.5834C3.28703 14.4288 3.48052 14.3511 3.7359 14.3511C3.98137 14.3511 4.17486 14.4248 4.31695 14.5722C4.45855 14.7191 4.52955 14.925 4.52955 15.1882V16.4559H4.04771L4.04791 16.4558ZM6.37907 16.4558V15.2612C6.37907 15.0849 6.3456 14.9565 6.27777 14.8755C6.21064 14.7946 6.10082 14.7538 5.94803 14.7538C5.87753 14.7538 5.80188 14.7735 5.72167 14.8137C5.64136 14.8532 5.57878 14.9032 5.53402 14.9625V16.4559H5.05219V14.3906H5.39906L5.48729 14.5834C5.61819 14.4288 5.81168 14.3511 6.06706 14.3511C6.31253 14.3511 6.50602 14.4248 6.64811 14.5722C6.78961 14.7191 6.86071 14.925 6.86071 15.1882V16.4559H6.37887L6.37907 16.4558ZM7.24927 15.4185C7.24927 15.1033 7.34007 14.8465 7.52168 14.6485C7.70338 14.4503 7.94361 14.351 8.24176 14.351C8.55496 14.351 8.79786 14.4464 8.97155 14.6366C9.14464 14.8268 9.23158 15.0875 9.23158 15.4185C9.23158 15.7476 9.14335 16.0094 8.96699 16.2037C8.79004 16.3979 8.54853 16.4953 8.24176 16.4953C7.92776 16.4953 7.68427 16.3972 7.51049 16.2011C7.33611 16.005 7.24927 15.7436 7.24927 15.4186V15.4185ZM7.75081 15.4185C7.75081 15.8733 7.91469 16.1003 8.24186 16.1003C8.39188 16.1003 8.5104 16.041 8.59853 15.9232C8.68607 15.8046 8.73013 15.6363 8.73013 15.4184C8.73013 14.9702 8.56754 14.7458 8.24186 14.7458C8.09105 14.7458 7.97193 14.805 7.8838 14.9228C7.79488 15.0413 7.75091 15.2065 7.75091 15.4184L7.75081 15.4185ZM10.4755 16.4952H10.3018L9.36981 14.3904H9.89898L10.3906 15.6541L10.9217 14.3904H11.4311L10.4755 16.4952V16.4952ZM12.8501 16.2497C12.8067 16.3214 12.7304 16.3806 12.6217 16.4267C12.513 16.472 12.3999 16.4952 12.2814 16.4952C12.0596 16.4952 11.8846 16.4392 11.7575 16.328C11.6305 16.2168 11.5666 16.0587 11.5666 15.8541C11.5666 15.6145 11.6561 15.427 11.8352 15.2919C12.0143 15.157 12.269 15.0892 12.5986 15.0892C12.6552 15.0892 12.7217 15.0984 12.7987 15.1169C12.7987 14.8747 12.6454 14.7536 12.3387 14.7536C12.1577 14.7536 12.0057 14.7838 11.884 14.8444L11.78 14.4693C11.9458 14.3903 12.1433 14.3508 12.3723 14.3508C12.6869 14.3508 12.9179 14.4225 13.0647 14.566C13.2115 14.7095 13.2845 14.9807 13.2845 15.3808V15.8225C13.2845 16.0975 13.3398 16.2706 13.4504 16.341C13.4102 16.4114 13.3661 16.4543 13.3174 16.4708C13.2687 16.4872 13.2128 16.4951 13.1496 16.4951C13.0797 16.4951 13.0173 16.4694 12.9619 16.4174C12.9067 16.3661 12.8691 16.31 12.85 16.2495L12.8501 16.2497ZM12.8027 15.4803C12.7205 15.4645 12.6592 15.4567 12.6178 15.4567C12.2381 15.4567 12.0485 15.5823 12.0485 15.8331C12.0485 16.0193 12.1559 16.1122 12.3698 16.1122C12.6587 16.1122 12.8028 15.9661 12.8028 15.6746V15.4804L12.8027 15.4803ZM13.8756 14.7775H13.6347V14.3905H13.8756V13.9713L14.3573 13.7943V14.3906H14.926V14.7776H14.3573V15.6831C14.3573 15.8313 14.3803 15.9358 14.4271 15.997C14.4739 16.0583 14.5548 16.0885 14.6712 16.0885C14.7878 16.0885 14.8963 16.0569 14.997 15.9938V16.4374C14.8851 16.4763 14.7252 16.4954 14.5172 16.4954C14.3113 16.4954 14.1526 16.4374 14.0421 16.321C13.9308 16.2045 13.8757 16.0386 13.8757 15.8235V14.7777L13.8756 14.7775ZM17.213 15.5711H15.7375C15.7467 15.7356 15.8033 15.8641 15.9073 15.9555C16.0112 16.0469 16.1514 16.0925 16.3278 16.0925C16.5484 16.0925 16.7155 16.0358 16.8301 15.9227L17.0169 16.2898C16.8471 16.4268 16.5944 16.4952 16.2574 16.4952C15.9428 16.4952 15.694 16.403 15.5104 16.2182C15.3274 16.0339 15.236 15.7758 15.236 15.4455C15.236 15.1197 15.3366 14.8558 15.5374 14.6537C15.7389 14.4517 15.9798 14.351 16.2614 14.351C16.5609 14.351 16.8011 14.4405 16.9821 14.6196C17.1631 14.7986 17.2539 15.0263 17.2539 15.3028C17.2539 15.362 17.2401 15.4515 17.2131 15.5713L17.213 15.5711ZM15.7572 15.2078H16.7681C16.7345 14.9051 16.568 14.7537 16.2686 14.7537C15.9941 14.7537 15.8237 14.9051 15.7572 15.2078V15.2078ZM17.7144 16.2016C17.7144 16.1056 17.748 16.0239 17.8158 15.9568C17.8837 15.889 17.9653 15.8554 18.062 15.8554C18.1587 15.8554 18.2403 15.889 18.3081 15.9568C18.3759 16.024 18.4095 16.1056 18.4095 16.2016C18.4095 16.2985 18.3759 16.3806 18.3081 16.4484C18.2402 16.5162 18.1586 16.5505 18.062 16.5505C17.9652 16.5505 17.8836 16.5162 17.8158 16.4484C17.748 16.3805 17.7144 16.2984 17.7144 16.2016ZM19.1644 16.2016C19.1644 16.1056 19.198 16.0239 19.2657 15.9568C19.3335 15.889 19.4151 15.8554 19.5119 15.8554C19.6086 15.8554 19.6903 15.889 19.758 15.9568C19.8258 16.024 19.8593 16.1056 19.8593 16.2016C19.8593 16.2985 19.8258 16.3806 19.758 16.4484C19.6902 16.5162 19.6085 16.5505 19.5119 16.5505C19.415 16.5505 19.3334 16.5162 19.2657 16.4484C19.198 16.3805 19.1644 16.2984 19.1644 16.2016ZM20.6143 16.2016C20.6143 16.1056 20.6478 16.0239 20.7157 15.9568C20.7834 15.889 20.8651 15.8554 20.9617 15.8554C21.0586 15.8554 21.1402 15.889 21.2079 15.9568C21.2756 16.024 21.3092 16.1056 21.3092 16.2016C21.3092 16.2985 21.2756 16.3806 21.2079 16.4484C21.1401 16.5162 21.0585 16.5505 20.9617 16.5505C20.865 16.5505 20.7833 16.5162 20.7157 16.4484C20.6478 16.3805 20.6143 16.2984 20.6143 16.2016ZM25.1457 13.7822L24.9391 14.1969C24.8272 14.0863 24.6468 14.0311 24.3988 14.0311C24.1632 14.0311 23.9703 14.1298 23.8197 14.3265C23.6689 14.5233 23.5939 14.7721 23.5939 15.0736C23.5939 15.3751 23.6637 15.6146 23.8033 15.7917C23.9428 15.9686 24.129 16.0568 24.362 16.0568C24.6285 16.0568 24.8365 15.9615 24.9872 15.7706L25.2208 16.1754C25.0163 16.3939 24.7167 16.5031 24.3212 16.5031C23.9263 16.5031 23.6197 16.3734 23.401 16.1142C23.1819 15.8548 23.0727 15.5007 23.0727 15.0526C23.0727 14.6353 23.1939 14.2864 23.4367 14.0055C23.6789 13.7251 23.9895 13.5849 24.368 13.5849C24.6924 13.5849 24.9518 13.6507 25.1459 13.7823L25.1457 13.7822ZM25.461 15.4185C25.461 15.1033 25.5518 14.8465 25.7335 14.6485C25.9151 14.4503 26.1553 14.351 26.4535 14.351C26.7668 14.351 27.0096 14.4464 27.1833 14.6366C27.3564 14.8268 27.4434 15.0875 27.4434 15.4185C27.4434 15.7476 27.3551 16.0094 27.1788 16.2037C27.0016 16.3979 26.7602 16.4953 26.4535 16.4953C26.1396 16.4953 25.896 16.3972 25.7223 16.2011C25.5479 16.005 25.461 15.7436 25.461 15.4186V15.4185ZM25.9625 15.4185C25.9625 15.8733 26.1264 16.1003 26.4536 16.1003C26.6037 16.1003 26.7221 16.041 26.8102 15.9232C26.8978 15.8046 26.9418 15.6363 26.9418 15.4184C26.9418 14.9702 26.7793 14.7458 26.4536 14.7458C26.3028 14.7458 26.1836 14.805 26.0955 14.9228C26.0067 15.0413 25.9626 15.2065 25.9626 15.4184L25.9625 15.4185ZM27.9133 13.6217L28.3952 13.5059V15.8265C28.3952 16.0805 28.4715 16.2319 28.6242 16.2813C28.5498 16.4241 28.4222 16.4952 28.2418 16.4952C28.0225 16.4952 27.9134 16.3431 27.9134 16.0397V13.6217H27.9133ZM29.0782 13.6217L29.5601 13.5059V15.8265C29.5601 16.0805 29.6364 16.2319 29.7891 16.2813C29.7148 16.4241 29.5871 16.4952 29.4067 16.4952C29.1875 16.4952 29.0783 16.3431 29.0783 16.0397V13.6217H29.0782ZM31.3093 16.2497C31.2659 16.3214 31.1895 16.3806 31.0808 16.4267C30.9722 16.472 30.859 16.4952 30.7406 16.4952C30.5188 16.4952 30.3437 16.4392 30.2167 16.328C30.0896 16.2168 30.0257 16.0587 30.0257 15.8541C30.0257 15.6145 30.1153 15.427 30.2944 15.2919C30.4734 15.157 30.7281 15.0892 31.0577 15.0892C31.1144 15.0892 31.1808 15.0984 31.2579 15.1169C31.2579 14.8747 31.1046 14.7536 30.7978 14.7536C30.6168 14.7536 30.4648 14.7838 30.3431 14.8444L30.2391 14.4693C30.4049 14.3903 30.6024 14.3508 30.8315 14.3508C31.1461 14.3508 31.3771 14.4225 31.5238 14.566C31.6707 14.7095 31.7437 14.9807 31.7437 15.3808V15.8225C31.7437 16.0975 31.7989 16.2706 31.9095 16.341C31.8693 16.4114 31.8253 16.4543 31.7765 16.4708C31.7278 16.4872 31.672 16.4951 31.6087 16.4951C31.5389 16.4951 31.4764 16.4694 31.4211 16.4174C31.3658 16.3661 31.3283 16.31 31.3092 16.2495L31.3093 16.2497ZM31.2618 15.4803C31.1796 15.4645 31.1183 15.4567 31.077 15.4567C30.6972 15.4567 30.5077 15.5823 30.5077 15.8331C30.5077 16.0193 30.615 16.1122 30.8289 16.1122C31.1179 16.1122 31.2619 15.9661 31.2619 15.6746V15.4804L31.2618 15.4803ZM32.6039 16.3431L32.4959 16.4952H32.2241V13.6217L32.7059 13.5059V14.4687C32.8343 14.3904 32.9745 14.3509 33.1265 14.3509C33.4286 14.3509 33.6721 14.4463 33.8577 14.6372C34.0426 14.8287 34.1353 15.0735 34.1353 15.3717C34.1353 15.7179 34.042 15.9917 33.8556 16.1931C33.6694 16.3945 33.4167 16.4952 33.0981 16.4952C32.9059 16.4952 32.7414 16.4445 32.6038 16.3431H32.6039ZM32.7059 14.8828V15.9594C32.777 16.043 32.8723 16.0844 32.9935 16.0844C33.2264 16.0844 33.391 16.0292 33.4884 15.9186C33.5852 15.8087 33.6338 15.6316 33.6338 15.3894C33.6338 14.971 33.4331 14.7616 33.0315 14.7616C32.8893 14.7616 32.7801 14.8018 32.7058 14.8828H32.7059ZM34.4257 15.4185C34.4257 15.1033 34.5165 14.8465 34.6982 14.6485C34.8798 14.4503 35.12 14.351 35.4182 14.351C35.7315 14.351 35.9743 14.4464 36.1479 14.6366C36.321 14.8268 36.408 15.0875 36.408 15.4185C36.408 15.7476 36.3197 16.0094 36.1435 16.2037C35.9663 16.3979 35.7249 16.4953 35.4182 16.4953C35.1042 16.4953 34.8607 16.3972 34.687 16.2011C34.5126 16.005 34.4257 15.7436 34.4257 15.4186V15.4185ZM34.9272 15.4185C34.9272 15.8733 35.0911 16.1003 35.4182 16.1003C35.5683 16.1003 35.6868 16.041 35.7749 15.9232C35.8625 15.8046 35.9065 15.6363 35.9065 15.4184C35.9065 14.9702 35.7439 14.7458 35.4182 14.7458C35.2675 14.7458 35.1483 14.805 35.0602 14.9228C34.9714 15.0413 34.9273 15.2065 34.9273 15.4184L34.9272 15.4185ZM37.9882 14.8406C37.902 14.7826 37.8079 14.7537 37.7053 14.7537C37.5935 14.7537 37.494 14.8044 37.4072 14.9064C37.3202 15.0077 37.2769 15.1321 37.2769 15.2789V16.4557H36.795V14.3904H37.2769V14.5799C37.4117 14.4273 37.5915 14.3509 37.8153 14.3509C37.9797 14.3509 38.1055 14.3759 38.193 14.4266L37.9882 14.8405V14.8406ZM39.5079 16.2497C39.4646 16.3214 39.3882 16.3806 39.2795 16.4267C39.171 16.472 39.0577 16.4952 38.9392 16.4952C38.7174 16.4952 38.5424 16.4392 38.4153 16.328C38.2883 16.2168 38.2245 16.0587 38.2245 15.8541C38.2245 15.6145 38.3139 15.427 38.4931 15.2919C38.6721 15.157 38.9268 15.0892 39.2564 15.0892C39.3131 15.0892 39.3795 15.0984 39.4565 15.1169C39.4565 14.8747 39.3032 14.7536 38.9966 14.7536C38.8156 14.7536 38.6635 14.7838 38.5418 14.8444L38.4378 14.4693C38.6036 14.3903 38.8011 14.3508 39.0302 14.3508C39.3447 14.3508 39.5758 14.4225 39.7225 14.566C39.8694 14.7095 39.9423 14.9807 39.9423 15.3808V15.8225C39.9423 16.0975 39.9976 16.2706 40.1082 16.341C40.068 16.4114 40.0239 16.4543 39.9752 16.4708C39.9265 16.4872 39.8706 16.4951 39.8074 16.4951C39.7376 16.4951 39.6751 16.4694 39.6197 16.4174C39.5646 16.3661 39.5269 16.31 39.5078 16.2495L39.5079 16.2497ZM39.4605 15.4803C39.3783 15.4645 39.3171 15.4567 39.2756 15.4567C38.8959 15.4567 38.7063 15.5823 38.7063 15.8331C38.7063 16.0193 38.8137 16.1122 39.0276 16.1122C39.3165 16.1122 39.4606 15.9661 39.4606 15.6746V15.4804L39.4605 15.4803ZM40.5334 14.7775H40.2925V14.3905H40.5334V13.9713L41.0151 13.7943V14.3906H41.5838V14.7776H41.0151V15.6831C41.0151 15.8313 41.0382 15.9358 41.0849 15.997C41.1317 16.0583 41.2127 16.0885 41.329 16.0885C41.4456 16.0885 41.5541 16.0569 41.6548 15.9938V16.4374C41.5429 16.4763 41.383 16.4954 41.1751 16.4954C40.9692 16.4954 40.8105 16.4374 40.6999 16.321C40.5886 16.2045 40.5335 16.0386 40.5335 15.8235V14.7777L40.5334 14.7775ZM43.8709 15.5711H42.3953C42.4045 15.7356 42.4611 15.8641 42.5651 15.9555C42.669 16.0469 42.8093 16.0925 42.9857 16.0925C43.2062 16.0925 43.3733 16.0358 43.4879 15.9227L43.6747 16.2898C43.5049 16.4268 43.2522 16.4952 42.9152 16.4952C42.6007 16.4952 42.3518 16.403 42.1682 16.2182C41.9852 16.0339 41.8938 15.7758 41.8938 15.4455C41.8938 15.1197 41.9945 14.8558 42.1953 14.6537C42.3967 14.4517 42.6376 14.351 42.9192 14.351C43.2187 14.351 43.4589 14.4405 43.6399 14.6196C43.8209 14.7986 43.9117 15.0263 43.9117 15.3028C43.9117 15.362 43.898 15.4515 43.871 15.5713L43.8709 15.5711ZM42.415 15.2078H43.426C43.3923 14.9051 43.2259 14.7537 42.9264 14.7537C42.6519 14.7537 42.4815 14.9051 42.415 15.2078V15.2078ZM44.3723 16.2016C44.3723 16.1056 44.4059 16.0239 44.4736 15.9568C44.5415 15.889 44.6231 15.8554 44.7198 15.8554C44.8166 15.8554 44.8982 15.889 44.9659 15.9568C45.0337 16.024 45.0673 16.1056 45.0673 16.2016C45.0673 16.2985 45.0337 16.3806 44.9659 16.4484C44.8981 16.5162 44.8165 16.5505 44.7198 16.5505C44.623 16.5505 44.5414 16.5162 44.4736 16.4484C44.4059 16.3805 44.3723 16.2984 44.3723 16.2016ZM45.8222 16.2016C45.8222 16.1056 45.8558 16.0239 45.9235 15.9568C45.9913 15.889 46.073 15.8554 46.1697 15.8554C46.2665 15.8554 46.3481 15.889 46.4158 15.9568C46.4836 16.024 46.5171 16.1056 46.5171 16.2016C46.5171 16.2985 46.4836 16.3806 46.4158 16.4484C46.348 16.5162 46.2664 16.5505 46.1697 16.5505C46.0729 16.5505 45.9912 16.5162 45.9235 16.4484C45.8558 16.3805 45.8222 16.2984 45.8222 16.2016ZM47.2721 16.2016C47.2721 16.1056 47.3057 16.0239 47.3735 15.9568C47.4413 15.889 47.5229 15.8554 47.6196 15.8554C47.7164 15.8554 47.798 15.889 47.8657 15.9568C47.9335 16.024 47.9671 16.1056 47.9671 16.2016C47.9671 16.2985 47.9335 16.3806 47.8657 16.4484C47.7979 16.5162 47.7163 16.5505 47.6196 16.5505C47.5228 16.5505 47.4412 16.5162 47.3735 16.4484C47.3057 16.3805 47.2721 16.2984 47.2721 16.2016ZM50.3661 14.0784V14.7379H51.2823V15.1644H50.3661V16.0094H51.6495V16.4557H49.8647V13.6322H51.6495V14.0784H50.3661V14.0784ZM53.414 16.4557V16.3306C53.3739 16.374 53.3066 16.4122 53.2113 16.4458C53.1166 16.4787 53.0178 16.4952 52.9165 16.4952C52.6282 16.4952 52.4018 16.4037 52.2366 16.2214C52.0715 16.0384 51.9885 15.7837 51.9885 15.4566C51.9885 15.1301 52.0831 14.8642 52.2728 14.6589C52.463 14.4535 52.7005 14.3509 52.9855 14.3509C53.1429 14.3509 53.2857 14.3831 53.4139 14.4477V13.6217L53.8957 13.5059V16.4558H53.4139L53.414 16.4557ZM53.414 14.8847C53.3114 14.8024 53.2041 14.7616 53.0922 14.7616C52.8987 14.7616 52.7505 14.8202 52.646 14.9379C52.542 15.0558 52.49 15.2242 52.49 15.4441C52.49 15.8739 52.6973 16.0884 53.1113 16.0884C53.1574 16.0884 53.2146 16.0747 53.2818 16.0469C53.3496 16.0193 53.3936 15.991 53.414 15.9628V14.8847V14.8847ZM55.7064 16.4557V16.2819C55.6379 16.3398 55.5444 16.3899 55.4247 16.432C55.3049 16.4741 55.195 16.4952 55.095 16.4952C54.6152 16.4952 54.3756 16.2405 54.3756 15.7311V14.3904H54.8574V15.6948C54.8574 15.9601 54.9765 16.0924 55.2141 16.0924C55.324 16.0924 55.4253 16.064 55.5195 16.0074C55.6128 15.9509 55.6753 15.8851 55.7063 15.8108V14.3905H56.1881V16.4558H55.7063L55.7064 16.4557ZM58.3278 14.5523L58.1218 14.9117C58.0087 14.8064 57.8573 14.7537 57.667 14.7537C57.4847 14.7537 57.3407 14.8142 57.2346 14.936C57.1288 15.0578 57.076 15.2263 57.076 15.4415C57.076 15.8752 57.282 16.0924 57.6947 16.0924C57.873 16.0924 58.0303 16.0331 58.1666 15.9147L58.3436 16.2937C58.2033 16.3812 58.081 16.4371 57.9764 16.4602C57.8717 16.4831 57.7479 16.495 57.6057 16.495C57.2865 16.495 57.0352 16.4021 56.8508 16.2159C56.6665 16.0303 56.5744 15.7716 56.5744 15.4412C56.5744 15.1154 56.6751 14.8522 56.8772 14.6514C57.0787 14.4506 57.3536 14.3506 57.7018 14.3506C57.942 14.3506 58.1507 14.4177 58.3277 14.552L58.3278 14.5523ZM59.8784 16.2497C59.835 16.3214 59.7586 16.3806 59.6499 16.4267C59.5413 16.472 59.4281 16.4952 59.3096 16.4952C59.0879 16.4952 58.9128 16.4392 58.7858 16.328C58.6587 16.2168 58.5949 16.0587 58.5949 15.8541C58.5949 15.6145 58.6844 15.427 58.8634 15.2919C59.0425 15.157 59.2972 15.0892 59.6269 15.0892C59.6835 15.0892 59.75 15.0984 59.827 15.1169C59.827 14.8747 59.6736 14.7536 59.3669 14.7536C59.1859 14.7536 59.0339 14.7838 58.9121 14.8444L58.8082 14.4693C58.974 14.3903 59.1716 14.3508 59.4006 14.3508C59.7152 14.3508 59.9462 14.4225 60.093 14.566C60.2398 14.7095 60.3128 14.9807 60.3128 15.3808V15.8225C60.3128 16.0975 60.368 16.2706 60.4787 16.341C60.4385 16.4114 60.3944 16.4543 60.3457 16.4708C60.2969 16.4872 60.2411 16.4951 60.1778 16.4951C60.108 16.4951 60.0455 16.4694 59.9902 16.4174C59.9349 16.3661 59.8974 16.31 59.8783 16.2495L59.8784 16.2497ZM59.831 15.4803C59.7488 15.4645 59.6875 15.4567 59.6461 15.4567C59.2663 15.4567 59.0768 15.5823 59.0768 15.8331C59.0768 16.0193 59.184 16.1122 59.398 16.1122C59.687 16.1122 59.8311 15.9661 59.8311 15.6746V15.4804L59.831 15.4803ZM60.9038 14.7775H60.6629V14.3905H60.9038V13.9713L61.3856 13.7943V14.3906H61.9543V14.7776H61.3856V15.6831C61.3856 15.8313 61.4086 15.9358 61.4554 15.997C61.5021 16.0583 61.583 16.0885 61.6995 16.0885C61.816 16.0885 61.9246 16.0569 62.0253 15.9938V16.4374C61.9134 16.4763 61.7535 16.4954 61.5455 16.4954C61.3395 16.4954 61.1809 16.4374 61.0703 16.321C60.9591 16.2045 60.9039 16.0386 60.9039 15.8235V14.7777L60.9038 14.7775ZM64.2413 15.5711H62.7657C62.775 15.7356 62.8316 15.8641 62.9356 15.9555C63.0394 16.0469 63.1797 16.0925 63.3561 16.0925C63.5766 16.0925 63.7438 16.0358 63.8584 15.9227L64.0452 16.2898C63.8754 16.4268 63.6227 16.4952 63.2857 16.4952C62.9711 16.4952 62.7223 16.403 62.5387 16.2182C62.3557 16.0339 62.2642 15.7758 62.2642 15.4455C62.2642 15.1197 62.3649 14.8558 62.5656 14.6537C62.767 14.4517 63.008 14.351 63.2897 14.351C63.5892 14.351 63.8293 14.4405 64.0103 14.6196C64.1914 14.7986 64.2822 15.0263 64.2822 15.3028C64.2822 15.362 64.2684 15.4515 64.2414 15.5713L64.2413 15.5711ZM62.7855 15.2078H63.7964C63.7628 14.9051 63.5962 14.7537 63.2969 14.7537C63.0224 14.7537 62.852 14.9051 62.7855 15.2078V15.2078ZM64.7427 16.2016C64.7427 16.1056 64.7763 16.0239 64.8441 15.9568C64.9119 15.889 64.9935 15.8554 65.0903 15.8554C65.187 15.8554 65.2686 15.889 65.3363 15.9568C65.4042 16.024 65.4377 16.1056 65.4377 16.2016C65.4377 16.2985 65.4042 16.3806 65.3363 16.4484C65.2685 16.5162 65.1869 16.5505 65.0903 16.5505C64.9934 16.5505 64.9118 16.5162 64.8441 16.4484C64.7763 16.3805 64.7427 16.2984 64.7427 16.2016ZM66.1927 16.2016C66.1927 16.1056 66.2262 16.0239 66.294 15.9568C66.3618 15.889 66.4434 15.8554 66.5401 15.8554C66.6369 15.8554 66.7186 15.889 66.7862 15.9568C66.854 16.024 66.8876 16.1056 66.8876 16.2016C66.8876 16.2985 66.854 16.3806 66.7862 16.4484C66.7185 16.5162 66.6368 16.5505 66.5401 16.5505C66.4433 16.5505 66.3617 16.5162 66.294 16.4484C66.2262 16.3805 66.1927 16.2984 66.1927 16.2016ZM67.6425 16.2016C67.6425 16.1056 67.6761 16.0239 67.7438 15.9568C67.8117 15.889 67.8934 15.8554 67.99 15.8554C68.0869 15.8554 68.1684 15.889 68.2362 15.9568C68.3039 16.024 68.3375 16.1056 68.3375 16.2016C68.3375 16.2985 68.3039 16.3806 68.2362 16.4484C68.1683 16.5162 68.0868 16.5505 67.99 16.5505C67.8933 16.5505 67.8116 16.5162 67.7438 16.4484C67.6761 16.3805 67.6425 16.2984 67.6425 16.2016Z" fill="#2B2A29"/>
</g>
<defs>
<clipPath id="clip0_163_66">
<rect width="70" height="18.6666" fill="white"/>
</clipPath>
</defs>
</svg>
