<svg width="2428" height="708" viewBox="0 0 2428 708" fill="none" xmlns="http://www.w3.org/2000/svg">
<path fill-rule="evenodd" clip-rule="evenodd" d="M809.94 93.891H958.379V629.776H809.94V93.891ZM1036.29 629.776V93.891H1444.55V197.792H1184.74V308.385H1423.73V412.299H1184.74V525.862H1444.55V629.776H1036.29V629.776ZM1527.66 629.776V93.891H1935.88V197.792H1676.09V308.385H1915.09V412.299H1676.09V525.862H1935.88V629.776H1527.66V629.776ZM2019.02 629.776V93.891H2427.24V197.792H2167.45V308.385H2406.44V412.299H2167.45V525.862H2427.24V629.776H2019.02V629.776ZM403.234 45.812C425.27 73.7489 448.447 103.009 472.285 129.506L531.168 191.009C583.512 243.17 640.591 290.354 701.668 331.951L703.64 332.262C707.499 334.808 710.742 338.183 713.131 342.141C715.521 346.099 716.997 350.54 717.453 355.141C717.141 374.699 694.613 378.629 682.771 389.161C564.863 474.657 459.302 580.542 376.088 698.464L369.383 705.208C362.626 709.332 353.91 707.685 346.829 705.208C337.789 702.238 336.816 692.394 331.044 686.285C312.64 657.687 289.113 630.891 269.062 604.264C257.221 592.228 247.351 579.596 235.185 566.769C166.769 491.738 89.8068 425.982 9.40725 370.575C3.64867 364.803 -1.1242 357.229 1.50866 348.034C3.98588 337.839 15.8143 331.756 23.7129 325.518C124.177 256.61 216.275 166.677 294.029 70.2989L342.562 7.14922C348.956 2.24665 357.529 -1.86478 365.401 1.58518C369.02 2.55791 373.144 5.83922 376.426 7.79765L403.234 45.812Z" fill="#366DB4"/>
<path fill-rule="evenodd" clip-rule="evenodd" d="M333.832 99.909C311.071 116.107 289.064 133.34 267.881 151.555C266.078 152.696 263.938 155.147 262.797 156.315C212.319 201.371 162.333 250.695 121.543 302.652C110.039 317.606 97.8733 332.249 93.4247 350.005C93.2561 359.525 94.7476 368.422 99.8577 375.646C134.37 427.123 180.115 476.318 225.638 518.573C264.95 553.578 302.77 592.086 347.645 615.574C362.444 622.487 379.058 614.433 391.392 605.717C452.402 562.774 506.836 509.027 558.443 453.452C582.281 424.192 609.595 397.397 623.071 363.857C626.69 350.511 620.931 339.175 614.368 329.124C574.084 271.577 525.071 217.169 472.284 168.143L468.835 166.172C449.756 147.755 428.058 129.688 407.176 113.735C387.268 96.7833 357.528 81.492 333.832 99.909V99.909Z" fill="white"/>
<path fill-rule="evenodd" clip-rule="evenodd" d="M342.562 114.371C267.402 166.327 195.057 236.701 136.848 308.554C124.994 325.998 104.281 342.612 113.658 365.815C120.403 382.91 135.538 395.231 145.24 410.354C202.281 478.925 269.711 542.892 340.071 594.369C370.991 614.096 393.027 582.203 417.034 567.547C466.202 528.767 511.752 481.571 554.838 435.696V434.555C572.088 413.661 590.349 393.117 603.825 370.588C609.765 359.538 606.795 344.415 600.193 334.714C548.068 259.23 479.678 192.487 407.164 134.111C388.41 120.946 366.711 97.9378 342.562 114.371V114.371Z" fill="#366DB4"/>
<path fill-rule="evenodd" clip-rule="evenodd" d="M357.841 161.735L351.278 182.772L318.387 277.011C326.61 277.815 336.804 277.011 344.858 277.815V278.645L340.085 385.191L340.915 386.359C351.447 387.318 364.572 387.824 375.272 386.009V384.387L370.992 280.953L371.654 277.504L400.589 277.011C386.104 238.772 372.126 200.344 358.658 161.735H357.841Z" fill="white"/>
<path fill-rule="evenodd" clip-rule="evenodd" d="M245.872 309.384C227.429 318.592 200.309 332.6 203.279 357.878C207.222 371.703 222.189 380.575 234.031 386.346C299.463 415.126 386.309 416.112 455.347 394.556C472.454 387.993 495.32 378.474 498.432 357.566C498.264 340.278 480.015 329.448 466.851 322.872V322.055C471.442 320.252 476.734 318.592 481.494 318.086V317.594C458.304 313.482 435.931 307.399 413.584 301.485C417.864 311.342 420.977 321.705 424.608 331.925C431.412 329.722 438.394 328.116 445.477 327.126C457.331 331.744 474.257 338.319 475.904 353.105C477.227 366.93 462.091 373.649 452.558 379.252C401.911 397.669 344.844 399.498 292.058 385.503C277.441 380.912 256.378 374.972 254.575 356.425C264.938 331.925 291.746 326.802 314.093 320.901C302.589 313.482 290.916 306.906 279.736 298.684C267.739 299.371 256.728 304.624 245.872 309.384V309.384ZM339.423 415.619C337.465 453.439 336.972 488.47 334.17 526.472C349.137 527.795 366.063 529.104 382.016 526.77L377.243 421.04L376.413 415.943C364.26 416.449 352.756 416.929 339.423 415.619V415.619Z" fill="white"/>
<path fill-rule="evenodd" clip-rule="evenodd" d="M476.968 652.343V645.884H480.989C483.167 645.884 486.125 646.091 486.125 648.828C486.125 651.798 484.607 652.343 482.052 652.343H476.968ZM476.968 656.869H479.679L485.839 668.114H492.635L485.787 656.415C489.354 656.117 492.233 654.34 492.233 649.425C492.233 643.29 488.161 641.344 481.248 641.344H471.248V668.114H476.955V656.869H476.968ZM506.059 654.742C506.059 639.01 494.27 629.866 481.105 629.866C467.889 629.866 456.1 639.01 456.1 654.742C456.1 670.475 467.889 679.644 481.105 679.644C494.27 679.644 506.059 670.475 506.059 654.742ZM498.887 654.742C498.887 666.195 490.716 673.924 481.105 673.924V673.847C471.248 673.924 463.285 666.195 463.285 654.742C463.285 643.29 471.248 635.664 481.105 635.664C490.716 635.677 498.887 643.303 498.887 654.742Z" fill="#366DB4"/>
</svg>
