<svg width="924" height="218" viewBox="0 0 924 218" fill="none" xmlns="http://www.w3.org/2000/svg">
<path d="M192.02 125.579C210.893 125.579 238.201 121.687 238.201 99.2375C238.257 97.5049 238.1 95.772 237.733 94.0778L226.493 45.2566C223.898 34.5147 221.62 29.6416 202.762 20.2123C188.127 12.7292 156.249 0.373047 146.819 0.373047C138.039 0.373047 135.489 11.6882 125.019 11.6882C114.941 11.6882 107.458 3.23955 98.0284 3.23955C88.9763 3.23955 83.0773 9.4101 78.521 22.0982C78.521 22.0982 65.833 57.8843 64.2036 63.0742C63.9446 64.0272 63.8327 65.0142 63.8717 66.001C63.8717 79.9112 118.637 125.519 192.02 125.519V125.579ZM241.097 108.35C243.707 120.706 243.707 122.004 243.707 123.633C243.707 144.755 219.961 156.477 188.746 156.477C118.2 156.522 56.4036 115.184 56.4036 87.862C56.3996 84.0588 57.1749 80.2952 58.6818 76.8033C33.3056 78.0706 0.461426 82.5966 0.461426 111.594C0.461426 159.087 112.995 217.624 202.098 217.624C270.411 217.624 287.641 186.726 287.641 162.331C287.641 143.14 271.045 121.355 241.128 108.35" fill="#EE0000"/>
<path d="M241.097 108.35C243.707 120.706 243.707 122.004 243.707 123.633C243.707 144.755 219.961 156.477 188.746 156.477C118.2 156.522 56.4036 115.184 56.4036 87.8619C56.3995 84.0587 57.1748 80.2951 58.6817 76.8032L64.2035 63.1345C63.9506 64.0681 63.8387 65.0343 63.8716 66.001C63.8716 79.9111 118.637 125.519 192.02 125.519C210.893 125.519 238.201 121.626 238.201 99.1771C238.257 97.4445 238.1 95.7115 237.733 94.0174L241.097 108.35ZM874.355 139.625C874.355 157.563 885.142 166.284 904.815 166.284C910.872 166.133 916.892 165.282 922.754 163.749V142.944C919.007 144.131 915.097 144.722 911.167 144.694C903.065 144.694 900.063 142.16 900.063 134.541V102.662H923.538V81.2387H900.063V54.0823L874.415 59.6343V81.2387H857.382V102.662H874.355V139.625ZM794.394 140.108C794.394 134.556 799.961 131.855 808.365 131.855C813.501 131.885 818.616 132.523 823.603 133.756V144.543C818.689 147.227 813.164 148.594 807.565 148.511C799.328 148.511 794.394 145.343 794.394 140.108ZM802.24 166.6C811.292 166.6 818.594 164.699 825.413 160.098V165.182H850.789V111.382C850.789 90.9245 837 79.6999 813.992 79.6999C801.138 79.6999 788.435 82.7173 774.766 88.9029L783.969 107.792C793.806 103.658 802.074 101.123 809.361 101.123C819.921 101.123 825.383 105.242 825.383 113.66V117.779C819.165 116.17 812.766 115.369 806.343 115.395C784.754 115.395 771.749 124.448 771.749 140.636C771.749 155.391 783.487 166.646 802.209 166.646L802.24 166.6ZM662.746 165.228H690.038V121.702H735.736V165.182H763.104V54.1125H735.842V96.7933H690.144V54.1125H662.852L662.746 165.228ZM558.858 123.135C558.858 111.066 568.378 101.863 580.915 101.863C587.437 101.73 593.771 104.057 598.657 108.38V137.724C596.29 139.961 593.503 141.707 590.458 142.862C587.413 144.016 584.17 144.557 580.915 144.453C568.543 144.453 558.858 135.25 558.858 123.195V123.135ZM599.004 165.243H624.395V48.5605L598.747 54.1125V85.6894C592.218 81.9879 584.829 80.073 577.324 80.1374C552.898 80.1374 533.693 99.0111 533.693 123.135C533.623 128.795 534.681 134.413 536.805 139.66C538.93 144.907 542.078 149.678 546.067 153.695C550.056 157.712 554.805 160.894 560.037 163.055C565.269 165.217 570.879 166.314 576.54 166.284C584.633 166.322 592.527 163.769 599.064 158.997L599.004 165.243ZM482.488 100.701C490.574 100.701 497.394 105.936 500.094 114.023H465.093C467.627 105.68 473.979 100.701 482.488 100.701ZM439.234 123.331C439.234 147.772 459.224 166.812 484.917 166.812C499.038 166.812 509.358 162.995 519.994 154.108L503.006 139.022C499.038 143.155 493.169 145.373 486.199 145.373C481.816 145.497 477.498 144.29 473.814 141.912C470.13 139.534 467.253 136.096 465.56 132.051H525.38V125.67C525.38 99.0111 507.457 79.8206 483.016 79.8206C477.271 79.7339 471.566 80.7968 466.237 82.9469C460.909 85.0969 456.064 88.2907 451.987 92.3403C447.911 96.39 444.685 101.214 442.5 106.528C440.315 111.843 439.215 117.54 439.264 123.286L439.234 123.331ZM394.984 77.4369C404.036 77.4369 409.105 83.1397 409.105 89.9741C409.105 96.8084 404.036 102.511 394.984 102.511H367.993V77.4369H394.984ZM340.671 165.182H367.963V124.719H388.738L409.694 165.182H440.244L415.804 120.751C422.015 118.225 427.328 113.898 431.06 108.328C434.792 102.757 436.772 96.1966 436.744 89.4913C436.744 69.5011 421.039 54.1125 397.518 54.1125H340.671V165.182Z" fill="black"/>
</svg>
